<svg id="Layer_1" enable-background="new 0 0 512 512" height="512" viewBox="0 0 512 512" width="512" xmlns="http://www.w3.org/2000/svg"><g><g><g><path d="m394.209 231.314c0 121.206-5.271 220.237-5.271 220.237s-13.133.625-35.14 1.36c-30.405 1.012-77.756 2.223-130.724 2.223-91.286 0-165.865-3.583-165.865-3.583s-1.092-20.467-2.283-54.186l-2.998-166.051c0-121.206 5.281-220.237 5.281-220.237s74.579-3.583 165.865-3.583c34.624 0 39.925.516 63.56 1.152 1.41.04 2.879.079 4.427.119 0 0 56.036 45.431 100.627 100.629 1.28 39.604 2.521 63.029 2.521 121.92z" fill="#e1fff8"/><path d="m394.209 231.314c0 121.206-5.271 220.237-5.271 220.237s-13.133.625-35.14 1.36c9.579-213.477-.308-342.257-.308-342.257-17.471-32.607-51.103-80.212-66.856-102.009 1.41.04 2.879.079 4.427.119 0 0 56.036 45.431 100.627 100.629 1.28 39.605 2.521 63.03 2.521 121.921z" fill="#c5deed"/><path d="m391.688 109.394c-13.054.635-26.097.983-38.267 1.141-34.753.466-62.359-.556-62.359-.556-2.333-40.498-.933-81.006-.278-95.567.159-3.633.278-5.648.278-5.648s56.035 45.431 100.626 100.63z" fill="#97b3bf"/><path d="m391.688 109.394c-13.054.635-26.097.983-38.267 1.141-16.071-29.966-45.732-72.529-62.637-96.123.159-3.633.278-5.648.278-5.648s56.035 45.431 100.626 100.63z" fill="#708ea0"/></g><path d="m460.07 380.245c0 68.615-55.63 124.241-124.25 124.241-5.94 0-11.78-.42-17.5-1.23-60.33-8.499-106.75-60.336-106.75-123.011s46.42-114.512 106.75-123.011c5.72-.81 11.56-1.23 17.5-1.23 68.62.001 124.25 55.626 124.25 124.241z" fill="#73e5d5"/><path d="m460.07 380.245c0 68.615-55.63 124.241-124.25 124.241-5.94 0-11.78-.42-17.5-1.23 60.33-8.499 106.75-60.336 106.75-123.011s-46.42-114.512-106.75-123.011c5.72-.81 11.56-1.23 17.5-1.23 68.62.001 124.25 55.626 124.25 124.241z" fill="#60ccc9"/></g><g><path d="m52.419 304.335c.037 0 .074 0 .111-.001 4.142-.061 7.45-3.467 7.39-7.609-.324-22.176-.488-44.181-.488-65.404 0-101.695 3.769-188.676 4.93-213.05 6.319-.268 16.8-.685 30.388-1.129 4.14-.136 7.387-3.602 7.251-7.741-.136-4.14-3.632-7.382-7.741-7.251-23.085.755-37.27 1.433-37.41 1.439-3.845.185-6.925 3.249-7.13 7.092-.053.992-5.287 100.619-5.287 220.64 0 21.296.165 43.375.49 65.623.058 4.106 3.404 7.392 7.496 7.391z"/><path d="m131.209 16.118c31.385-.742 62.289-1.118 91.854-1.118 26.188 0 35.673.301 48.799.717 3.405.108 7.07.224 11.336.346-.681 16.207-1.877 55.477.366 94.357.223 3.862 3.346 6.92 7.211 7.063.305.011 18.731.672 44.252.672 14.798 0 31.98-.222 49.396-.922.14 4.154.279 8.153.415 12.066.996 28.758 1.857 53.595 1.857 102.023 0 8.935-.03 18.082-.088 27.313-15.868-6.622-33.08-10.135-50.789-10.135-16.26 0-32.136 2.928-47.187 8.704-3.867 1.484-5.8 5.822-4.315 9.689 1.483 3.866 5.819 5.802 9.688 4.315 13.33-5.115 27.397-7.708 41.813-7.708 35.16 0 68.111 15.625 90.404 42.868 1.483 1.812 3.637 2.75 5.809 2.75 1.671 0 3.353-.555 4.746-1.696 3.205-2.623 3.678-7.348 1.055-10.554-10.295-12.581-22.605-22.966-36.277-30.845.093-11.734.14-23.387.14-34.703 0-48.688-.865-73.645-1.866-102.543-.216-6.227-.439-12.672-.664-19.616-.053-1.631-.636-3.2-1.661-4.47-44.565-55.182-101.161-101.287-101.728-101.746-1.286-1.042-2.881-1.63-4.535-1.672-7.773-.195-13.646-.382-18.902-.548-13.265-.421-22.848-.725-49.275-.725-29.684 0-60.707.377-92.208 1.122-4.142.098-7.419 3.534-7.321 7.675s3.531 7.42 7.675 7.321zm244.976 86.404c-33.332 1.087-64.607.519-78.006.173-1.461-30.747-.879-60.871-.287-78.292 16.765 14.576 49.019 43.931 78.293 78.119z"/><path d="m457.076 328.647c-1.624-3.811-6.028-5.583-9.839-3.96-3.811 1.624-5.584 6.029-3.96 9.839 6.165 14.471 9.291 29.855 9.291 45.724 0 64.376-52.374 116.75-116.75 116.75s-116.75-52.374-116.75-116.75c0-35.996 16.234-69.437 44.539-91.747 3.253-2.564 3.812-7.28 1.248-10.533-2.565-3.253-7.281-3.812-10.533-1.248-31.938 25.173-50.254 62.907-50.254 103.527 0 24.609 6.783 47.664 18.576 67.394-74.195-.009-137.915-2.415-158.284-3.273-.749-15.684-2.58-57.264-3.78-111.709-.091-4.141-3.522-7.419-7.663-7.333-4.142.091-7.425 3.522-7.333 7.664 1.537 69.74 4.108 118.484 4.135 118.969.205 3.843 3.285 6.908 7.13 7.092.747.036 75.802 3.59 166.215 3.59 3.36 0 6.696-.005 10.007-.014 24.167 30.083 61.247 49.371 102.747 49.371 72.647 0 131.75-59.103 131.75-131.75 0-17.901-3.53-35.263-10.492-51.603z"/><path d="m113.404 75.952h92.783c4.143 0 7.5-3.358 7.5-7.5s-3.357-7.5-7.5-7.5h-92.783c-4.143 0-7.5 3.358-7.5 7.5s3.358 7.5 7.5 7.5z"/><path d="m113.404 130.952h62.783c4.143 0 7.5-3.358 7.5-7.5s-3.357-7.5-7.5-7.5h-62.783c-4.143 0-7.5 3.358-7.5 7.5s3.358 7.5 7.5 7.5z"/><path d="m335.818 457.167c4.143 0 7.5-3.358 7.5-7.5v-59.805h59.804c4.143 0 7.5-3.358 7.5-7.5s-3.357-7.5-7.5-7.5h-59.804v-59.804c0-4.142-3.357-7.5-7.5-7.5s-7.5 3.358-7.5 7.5v59.804h-59.805c-4.143 0-7.5 3.358-7.5 7.5s3.357 7.5 7.5 7.5h59.805v59.805c0 4.142 3.358 7.5 7.5 7.5z"/></g></g></svg>