<svg id="Layer_1" height="512" viewBox="0 0 91 91" width="512" xmlns="http://www.w3.org/2000/svg" data-name="Layer 1"><g fill="rgb(0,0,0)"><path d="m10.66 56.77a9.94 9.94 0 0 0 6.93-17.08l8.71-10.22a9.89 9.89 0 0 0 12.7-.28l9.12 7.07a9.86 9.86 0 0 0 -1.27 4.74 10 10 0 1 0 17.29-6.71l10.86-14.17a10 10 0 1 0 -3-1.86l-10.64 13.93a9.91 9.91 0 0 0 -11.09 1.35l-9.11-7.07a10 10 0 1 0 -17.16.36l-9.33 10.89a9.78 9.78 0 0 0 -4-.86 10 10 0 1 0 0 19.91zm68-52.35a6.46 6.46 0 1 1 -6.45 6.45 6.46 6.46 0 0 1 6.42-6.45zm-21.86 30.16a6.46 6.46 0 1 1 -6.45 6.42 6.46 6.46 0 0 1 6.45-6.42zm-24.35-19.37a6.46 6.46 0 1 1 -6.45 6.45 6.45 6.45 0 0 1 6.45-6.45zm-21.79 25.15a6.46 6.46 0 1 1 -6.46 6.46 6.46 6.46 0 0 1 6.46-6.46z"/><path d="m89 86.39h-1.8v-52.31a1.75 1.75 0 0 0 -1.75-1.75h-10.45a1.75 1.75 0 0 0 -1.75 1.75v52.31h-9.25v-28.28a1.75 1.75 0 0 0 -1.75-1.75h-10.49a1.75 1.75 0 0 0 -1.76 1.75v28.28h-9.3v-43.25a1.76 1.76 0 0 0 -1.7-1.75h-10.49a1.75 1.75 0 0 0 -1.75 1.75v43.25h-9.31v-23.47a1.76 1.76 0 0 0 -1.75-1.75h-10.44a1.75 1.75 0 0 0 -1.75 1.75v23.47h-.78a1.75 1.75 0 0 0 0 3.5h86.27a1.75 1.75 0 0 0 0-3.5zm-12.24-50.56h6.94v50.56h-6.94zm-23.25 24h6.94v26.56h-6.94zm-23.25-15h6.94v41.5h-6.94zm-23.26 19.84h7v21.72h-7z"/></g></svg>