<?xml version="1.0" encoding="iso-8859-1"?>
<!-- Generator: Adobe Illustrator 19.0.0, SVG Export Plug-In . SVG Version: 6.00 Build 0)  -->
<svg version="1.1" id="Layer_1" xmlns="http://www.w3.org/2000/svg" xmlns:xlink="http://www.w3.org/1999/xlink" x="0px" y="0px"
	 viewBox="0 0 512 512" style="enable-background:new 0 0 512 512;" xml:space="preserve">
<path style="fill:#CFDCE5;" d="M450.332,180.319H9.103v309.747h454.595V193.686C463.697,186.303,457.713,180.319,450.332,180.319z"
	/>
<path style="fill:#4EBFED;" d="M342.043,382.62l-68.164,53.61l2.862-86.673L436.315,34.38c5.665-11.188,19.327-15.667,30.515-10.001
	l24.784,12.548c11.188,5.665,15.667,19.326,10.001,30.515L342.043,382.62z"/>
<path style="fill:#FF6F52;" d="M419.492,67.613l16.824-33.23c5.664-11.187,19.329-15.667,30.517-10.003l24.785,12.549
	c11.187,5.664,15.656,19.324,9.992,30.512l-16.824,33.231L419.492,67.613z"/>
<rect x="367.107" y="63.638" transform="matrix(0.8922 0.4517 -0.4517 0.8922 140.4349 -144.9935)" style="fill:#97E1F7;" width="13.617" height="316.03"/>
<path style="fill:#3BA4BC;" d="M501.616,67.441c5.665-11.188,1.187-24.851-10.001-30.515l-6.178-3.128
	c5.611,2.841,5.566,14.213-0.098,25.401L325.764,374.377l-51.885,61.853l68.164-53.61L501.616,67.441z"/>
<polygon style="fill:#FCD577;" points="276.744,349.558 342.039,382.617 273.882,436.234 "/>
<path style="fill:#D33F22;" d="M485.432,33.798l6.186,3.132c11.187,5.664,15.656,19.324,9.992,30.512l-16.824,33.231l-16.27-8.238
	l16.824-33.23C491.004,48.016,491.042,36.638,485.432,33.798z"/>
<polygon style="fill:#EAC36E;" points="325.769,374.379 342.039,382.617 273.882,436.234 "/>
<path d="M463.106,190.574c-4.702,0-8.511,3.811-8.511,8.511v282.47H17.023v-65.157c0-4.701-3.81-8.511-8.511-8.511
	S0,411.697,0,416.398v73.669c0,4.701,3.81,8.511,8.511,8.511h454.595c4.702,0,8.511-3.811,8.511-8.511V199.085
	C471.617,194.385,467.808,190.574,463.106,190.574z"/>
<path d="M510.432,47.462c-2.598-7.924-8.124-14.363-15.564-18.129l-24.785-12.548c-15.358-7.776-34.178-1.606-41.954,13.751
	l-43.992,86.89c-2.123,4.193-0.445,9.315,3.75,11.438c4.191,2.124,9.315,0.446,11.438-3.748l23.322-46.064l50.114,25.373
	L337.701,371.183l-50.114-25.373l98.921-195.383c2.123-4.193,0.445-9.315-3.75-11.438c-4.192-2.123-9.314-0.445-11.438,3.75
	l-14.719,29.071H8.511C3.81,171.81,0,175.621,0,180.322v207.707c0,4.701,3.81,8.511,8.511,8.511s8.511-3.811,8.511-8.511V188.831
	h330.962l-79.428,156.882c-0.561,1.108-0.873,2.323-0.914,3.563l-2.861,86.673c-0.109,3.308,1.709,6.38,4.662,7.875
	c1.215,0.615,2.532,0.918,3.844,0.918c1.872,0,3.733-0.617,5.263-1.821l68.162-53.61c0.975-0.767,1.772-1.739,2.332-2.845
	L508.618,71.287C512.385,63.847,513.028,55.386,510.432,47.462z M284.216,363.182l41.48,21l-43.298,34.053L284.216,363.182z
	 M493.43,63.598l-12.98,25.639l-50.115-25.373l12.98-25.639c3.536-6.984,12.098-9.788,19.078-6.253l24.785,12.548
	c3.382,1.712,5.896,4.64,7.077,8.244C495.436,56.366,495.144,60.215,493.43,63.598z"/>
<path d="M294.589,253.556c4.702,0,8.511-3.811,8.511-8.511s-3.81-8.511-8.511-8.511h-41.417c-4.702,0-8.511,3.811-8.511,8.511
	s3.81,8.511,8.511,8.511H294.589z"/>
<path d="M224.8,236.533H71.603c-4.702,0-8.511,3.811-8.511,8.511s3.81,8.511,8.511,8.511H224.8c4.702,0,8.511-3.811,8.511-8.511
	S229.501,236.533,224.8,236.533z"/>
<path d="M122.103,294.408c0,4.701,3.81,8.511,8.511,8.511h135.038c4.702,0,8.511-3.811,8.511-8.511c0-4.701-3.81-8.511-8.511-8.511
	H130.614C125.913,285.897,122.103,289.707,122.103,294.408z"/>
<path d="M71.603,302.919h30.64c4.702,0,8.511-3.811,8.511-8.511c0-4.701-3.81-8.511-8.511-8.511h-30.64
	c-4.702,0-8.511,3.811-8.511,8.511C63.092,299.109,66.902,302.919,71.603,302.919z"/>
<path d="M405.231,437.391c4.702,0,8.511-3.811,8.511-8.511c0-4.701-3.81-8.511-8.511-8.511H331.47c-4.702,0-8.511,3.811-8.511,8.511
	c0,4.701,3.81,8.511,8.511,8.511H405.231z"/>
<path d="M71.603,437.391h168.516c4.702,0,8.511-3.811,8.511-8.511c0-4.701-3.81-8.511-8.511-8.511H71.603
	c-4.702,0-8.511,3.811-8.511,8.511C63.092,433.58,66.902,437.391,71.603,437.391z"/>
<g>
</g>
<g>
</g>
<g>
</g>
<g>
</g>
<g>
</g>
<g>
</g>
<g>
</g>
<g>
</g>
<g>
</g>
<g>
</g>
<g>
</g>
<g>
</g>
<g>
</g>
<g>
</g>
<g>
</g>
</svg>
