<?xml version="1.0" encoding="iso-8859-1"?>
<!-- Generator: Adobe Illustrator 19.0.0, SVG Export Plug-In . SVG Version: 6.00 Build 0)  -->
<svg version="1.1" id="Capa_1" xmlns="http://www.w3.org/2000/svg" xmlns:xlink="http://www.w3.org/1999/xlink" x="0px" y="0px"
	 viewBox="0 0 512 512" style="enable-background:new 0 0 512 512;" xml:space="preserve">
<g>
	<path style="fill:#D1CFCF;" d="M488.638,143.205H160.153v68.734h328.486c8.76,0,15.861-7.1,15.861-15.862v-37.01
		C504.5,150.308,497.397,143.205,488.638,143.205z"/>
	<path style="fill:#D1CFCF;" d="M493.514,58.258l-7.336-36.274c-1.737-8.588-10.108-14.14-18.691-12.404L145.481,75.305l0.046,0.23
		c8.182,0.632,14.626,7.455,14.626,15.798v51.129L481.112,76.95C489.696,75.212,495.249,66.845,493.514,58.258z"/>
</g>
<path style="fill:#C1BDBD;" d="M182.383,137.925V83.976c0-5.913-2.596-11.21-6.706-14.834l-30.197,6.163l0.046,0.23
	c8.182,0.632,14.626,7.455,14.626,15.798v51.129L182.383,137.925z"/>
<polygon style="fill:#414356;" points="201.597,143.205 160.153,143.205 160.153,211.939 228.765,211.939 "/>
<rect x="160.15" y="143.208" style="fill:#2F3244;" width="22.231" height="68.734"/>
<g>
	<polygon style="fill:#414356;" points="289.09,211.939 349.417,211.939 322.247,143.205 261.921,143.205 	"/>
	<polygon style="fill:#414356;" points="409.742,211.939 470.065,211.939 442.899,143.205 382.572,143.205 	"/>
	<polygon style="fill:#414356;" points="272.042,49.473 212.826,61.559 199.587,134.413 259.048,122.277 	"/>
	<polygon style="fill:#414356;" points="390.334,25.327 331.188,37.4 318.193,110.204 377.336,98.133 	"/>
	<path style="fill:#414356;" d="M486.177,21.983c-1.737-8.588-10.108-14.14-18.691-12.404l-18.009,3.676L436.478,86.06l44.633-9.11
		c8.585-1.738,14.138-10.106,12.403-18.692L486.177,21.983z"/>
</g>
<path style="fill:#D63322;" d="M488.638,210.939H261.107c-8.654,0-217.251,0-225.849,0c0,24.968,0,271.174,0,275.936
	c0,8.761,7.103,15.861,15.862,15.861h437.518c8.76,0,15.861-7.101,15.861-15.861V226.801
	C504.5,218.042,497.397,210.939,488.638,210.939z"/>
<path style="fill:#C12D21;" d="M55.259,486.875c0-4.763,0-250.968,0-275.936c-8.775,0-7.178,0-20.001,0
	c0,24.968,0,271.174,0,275.936c0,8.761,7.103,15.861,15.862,15.861h20.001C62.362,502.736,55.259,495.636,55.259,486.875z"/>
<path style="fill:#EFEFEF;" d="M343.611,354.638c0,43.084-34.924,78.009-78.007,78.009c-43.086,0-78.01-34.925-78.01-78.009
	s34.924-78.01,78.01-78.01C308.687,276.628,343.611,311.554,343.611,354.638z"/>
<path style="fill:#D1CFCF;" d="M207.596,354.638c0-39.692,29.65-72.437,68.009-77.35c-47.105-6.036-88.01,30.667-88.01,77.35
	c0,46.676,40.901,83.385,88.01,77.349C237.245,427.074,207.596,394.33,207.596,354.638z"/>
<path style="fill:#49B5CE;" d="M146.29,74.471H51.12c-8.76,0-15.862,7.102-15.862,15.862v25.115l0,0v55.515l0,0
	c0,56.035,0,7.062,0,40.976c63.324,0,62.528,0,126.895,0c0-7.427,0-60.697,0-68.734V90.333
	C162.153,81.574,155.049,74.471,146.29,74.471z"/>
<path style="fill:#37A9BC;" d="M55.259,170.963L55.259,170.963v-55.515l0,0V90.333c0-8.76,7.103-15.862,15.862-15.862H51.12
	c-8.76,0-15.862,7.102-15.862,15.862v25.115l0,0v55.515l0,0c0,56.035,0,7.062,0,40.976c12.51,0,11.815,0,20.001,0
	C55.259,181.96,55.259,224.859,55.259,170.963z"/>
<path style="fill:#49B5CE;" d="M291.338,350.279l-36.516-20.518c-1.547-0.87-3.441-0.853-4.975,0.044
	c-1.533,0.897-2.475,2.539-2.475,4.315v41.036c0,2.766,2.246,5,5,5c0.844,0,1.689-0.213,2.449-0.641l36.516-20.518
	C294.735,357.089,294.734,352.187,291.338,350.279z"/>
<path style="fill:#37A9BC;" d="M266.602,336.381l-11.781-6.619c-1.547-0.87-3.441-0.853-4.975,0.044
	c-1.533,0.897-2.475,2.539-2.475,4.315v41.036c0,2.766,2.246,5,5,5c0.844,0,1.689-0.213,2.449-0.641l11.781-6.619v-36.516H266.602z"
	/>
<circle style="fill:#414356;" cx="35.262" cy="143.208" r="27.758"/>
<path style="fill:#2F3244;" d="M49.138,119.171C30.732,108.519,7.5,121.807,7.5,143.205c0,15.331,12.429,27.758,27.758,27.758
	c5.058,0,9.796-1.359,13.88-3.722C30.646,156.539,30.65,129.869,49.138,119.171z"/>
<path d="M504.5,289.416c-4.143,0-7.5,3.358-7.5,7.5v189.959c0,4.61-3.75,8.36-8.36,8.36H119.921c-4.143,0-7.5,3.358-7.5,7.5
	s3.357,7.5,7.5,7.5h368.716c12.882,0,23.361-10.48,23.361-23.361V296.917C512,292.774,508.642,289.416,504.5,289.416z"/>
<path d="M512,159.067c0-12.882-10.48-23.361-23.361-23.361H228.452L482.6,84.303c12.622-2.556,20.816-14.905,18.267-27.529
	c0,0,0-0.001,0-0.002l-7.337-36.275C490.975,7.87,478.625-0.321,466,2.229L145.993,66.954c-0.023,0.005-0.044,0.012-0.067,0.017
	H51.12c-12.883,0-23.362,10.48-23.362,23.362v18.425C11.909,112.206,0,126.338,0,143.205s11.909,30.999,27.758,34.447v34.287
	v274.936c0,12.882,10.48,23.361,23.362,23.361h33.799c4.143,0,7.5-3.358,7.5-7.5s-3.357-7.5-7.5-7.5H51.12
	c-4.61,0-8.362-3.75-8.362-8.36V219.44c7.509,0,438.062,0,445.88,0c4.61,0,8.36,3.75,8.36,8.361v34.113c0,4.142,3.357,7.5,7.5,7.5
	s7.5-3.358,7.5-7.5v-34.113c0-6.118-2.367-11.693-6.23-15.862c3.863-4.169,6.23-9.744,6.23-15.862V159.067z M414.842,204.439
	l-21.239-53.732h44.197l21.238,53.732H414.842z M354.516,204.439l-21.239-53.732h44.195l21.239,53.732H354.516z M294.19,204.439
	l-21.239-53.732h44.198l21.238,53.732H294.19z M233.865,204.439l-21.239-53.732h44.196l21.238,53.732H233.865z M262.789,58.635
	l-10.153,56.874l-43.315,8.761l10.152-56.873L262.789,58.635z M321.913,46.676l-10.151,56.874l-43.317,8.762l10.153-56.874
	L321.913,46.676z M381.038,34.717l-10.154,56.875l-43.313,8.761l10.151-56.874L381.038,34.717z M440.163,22.758l-10.155,56.876
	l-43.316,8.761l10.154-56.875L440.163,22.758z M193.514,127.466l-23.86,4.826v-41.96c0-0.504-0.022-1.003-0.053-1.499
	c-0.007-0.116-0.017-0.231-0.026-0.346c-0.035-0.451-0.083-0.898-0.143-1.342c-0.005-0.037-0.009-0.075-0.014-0.112
	c-0.456-3.21-1.563-6.213-3.189-8.868l37.439-7.572L193.514,127.466z M468.972,16.931c4.521-0.914,8.94,2.021,9.854,6.539
	l7.336,36.273c0.913,4.52-2.021,8.942-6.537,9.856l-33.809,6.838l10.155-56.875L468.972,16.931z M15.001,143.205
	c0-11.17,9.088-20.257,20.257-20.257c11.171,0,20.258,9.088,20.258,20.257s-9.088,20.257-20.258,20.257
	C24.088,163.462,15.001,154.375,15.001,143.205z M42.759,177.66c4.848-1.055,9.629-3.201,13.833-6.408
	c0.939-0.716,1.751-1.4,2.61-2.196c21.044-19.503,10.958-54.346-16.443-60.306V90.333c0-4.61,3.751-8.362,8.362-8.362
	c101.203,0,95.096-0.016,95.756,0.03c3.785,0.332,6.554,2.902,7.45,6.044c0.158,0.548,0.163,0.663,0.211,0.963
	c0.065,0.398,0.115,0.708,0.115,1.324v51.129v1.743v61.233H42.759V177.66z M169.653,150.706h26.844l21.238,53.732h-48.083v-53.732
	H169.653z M475.166,204.439l-21.238-53.733h34.71c4.61,0,8.36,3.75,8.36,8.361v37.01c0,4.61-3.75,8.362-8.36,8.362h-13.472V204.439z
	"/>
<path d="M302.77,348.1l-51.724-29.064c-4.994-2.803-11.175,0.811-11.175,6.539v58.127c0,2.664,1.413,5.128,3.712,6.473
	c2.326,1.36,5.164,1.356,7.462,0.065l51.724-29.063C307.868,358.313,307.862,350.961,302.77,348.1z M254.872,370.883v-32.491
	l28.912,16.246L254.872,370.883z"/>
<path d="M351.111,354.638c0-47.15-38.358-85.51-85.507-85.51c-47.15,0-85.51,38.359-85.51,85.51c0,47.15,38.359,85.509,85.51,85.509
	C312.752,440.147,351.111,401.788,351.111,354.638z M195.095,354.638c0-38.878,31.63-70.509,70.509-70.509
	c38.877,0,70.506,31.63,70.506,70.509c0,38.878-31.629,70.508-70.506,70.508C226.725,425.146,195.095,393.516,195.095,354.638z"/>
<g>
</g>
<g>
</g>
<g>
</g>
<g>
</g>
<g>
</g>
<g>
</g>
<g>
</g>
<g>
</g>
<g>
</g>
<g>
</g>
<g>
</g>
<g>
</g>
<g>
</g>
<g>
</g>
<g>
</g>
</svg>
