<svg id="Outline" height="512" viewBox="0 0 32 32" width="512" xmlns="http://www.w3.org/2000/svg"><g><path d="m16 0c-8.82227 0-16 7.17773-16 16s7.17773 16 16 16 16-7.17773 16-16-7.17773-16-16-16zm0 30c-7.71973 0-14-6.28027-14-14s6.28027-14 14-14 14 6.28027 14 14-6.28027 14-14 14z"/><path d="m22.36426 9.63574c-.39063-.39063-1.02344-.39063-1.41406 0l-4.94995 4.9502-4.94995-4.9502c-.39063-.39063-1.02344-.39063-1.41406 0s-.39063 1.02344 0 1.41406l4.94994 4.9502-4.94995 4.9502c-.39062.39062-.39063 1.02343-.00001 1.41405.37669.3767 1.02624.38784 1.41407.00001l4.94995-4.9502s4.9439 4.94414 4.94995 4.95019c.37614.37616 1.02666.38741 1.41407.00001.39063-.39063.39063-1.02344 0-1.41406l-4.94995-4.9502 4.94995-4.9502c.39062-.39062.39062-1.02343 0-1.41406z"/></g></svg>