<?xml version="1.0" encoding="UTF-8" standalone="no"?>
<!-- Created with Inkscape (http://www.inkscape.org/) -->

<svg
   version="1.1"
   id="svg3462"
   xml:space="preserve"
   width="682.66669"
   height="682.66669"
   viewBox="0 0 682.66669 682.66669"
   xmlns="http://www.w3.org/2000/svg"
   xmlns:svg="http://www.w3.org/2000/svg"><defs
     id="defs3466"><clipPath
       clipPathUnits="userSpaceOnUse"
       id="clipPath3498"><path
         d="M 0,512 H 512 V 0 H 0 Z"
         id="path3496" /></clipPath></defs><g
     id="g3468"
     transform="matrix(1.3333333,0,0,-1.3333333,0,682.66667)"><path
       d="M 119.17,144.327 H 7.5 V 32.654 h 111.67 z"
       style="fill:#f9f7f8;fill-opacity:1;fill-rule:evenodd;stroke:none"
       id="path3470" /><path
       d="M 7.5,144.327 H 119.17 V 256 H 7.5 Z"
       style="fill:#f9f7f8;fill-opacity:1;fill-rule:evenodd;stroke:none"
       id="path3472" /><path
       d="M 7.5,256 H 119.17 V 367.673 H 7.5 Z"
       style="fill:#f9f7f8;fill-opacity:1;fill-rule:evenodd;stroke:none"
       id="path3474" /><path
       d="M 119.17,256 H 230.84 V 367.673 H 119.17 Z"
       style="fill:#f9f7f8;fill-opacity:1;fill-rule:evenodd;stroke:none"
       id="path3476" /><path
       d="M 119.17,367.673 H 230.84 V 479.346 H 119.17 Z"
       style="fill:#f9f7f8;fill-opacity:1;fill-rule:evenodd;stroke:none"
       id="path3478" /><path
       d="M 230.84,256 H 119.17 V 144.327 h 111.67 z"
       style="fill:#f9f7f8;fill-opacity:1;fill-rule:evenodd;stroke:none"
       id="path3480" /><path
       d="M 230.84,144.327 H 342.51 V 256 H 230.84 Z"
       style="fill:#f9f7f8;fill-opacity:1;fill-rule:evenodd;stroke:none"
       id="path3482" /><path
       d="M 342.511,144.327 H 230.841 V 32.654 h 111.67 z"
       style="fill:#f9f7f8;fill-opacity:1;fill-rule:evenodd;stroke:none"
       id="path3484" /><path
       d="M 230.84,256 H 342.51 V 367.673 H 230.84 Z"
       style="fill:#f9f7f8;fill-opacity:1;fill-rule:evenodd;stroke:none"
       id="path3486" /><path
       d="M 230.84,367.673 H 342.51 V 479.346 H 230.84 Z"
       style="fill:#f9f7f8;fill-opacity:1;fill-rule:evenodd;stroke:none"
       id="path3488" /><path
       d="m 342.511,256 h 111.67 v 111.673 h -111.67 z"
       style="fill:#f9f7f8;fill-opacity:1;fill-rule:evenodd;stroke:none"
       id="path3490" /><g
       id="g3492"><g
         id="g3494"
         clip-path="url(#clipPath3498)"><g
           id="g3500"
           transform="translate(7.5,256)"><path
             d="M 0,0 H 111.67 V 111.673 C 96.474,38.55 57.295,4.236 0,0"
             style="fill:#e5e1e5;fill-opacity:1;fill-rule:evenodd;stroke:none"
             id="path3502" /></g><g
           id="g3504"
           transform="translate(7.5,144.3267)"><path
             d="M 0,0 H 111.67 V 111.673 C 96.474,38.55 57.295,4.236 0,0"
             style="fill:#e5e1e5;fill-opacity:1;fill-rule:evenodd;stroke:none"
             id="path3506" /></g><g
           id="g3508"
           transform="translate(119.1704,144.3267)"><path
             d="M 0,0 H 111.67 V 111.673 C 96.474,38.55 57.294,4.236 0,0"
             style="fill:#e5e1e5;fill-opacity:1;fill-rule:evenodd;stroke:none"
             id="path3510" /></g><g
           id="g3512"
           transform="translate(119.1704,256)"><path
             d="M 0,0 H 111.67 V 111.673 C 96.474,38.55 57.294,4.236 0,0"
             style="fill:#e5e1e5;fill-opacity:1;fill-rule:evenodd;stroke:none"
             id="path3514" /></g><g
           id="g3516"
           transform="translate(119.1704,367.6733)"><path
             d="M 0,0 H 111.67 V 111.673 C 96.474,38.55 57.294,4.236 0,0"
             style="fill:#e5e1e5;fill-opacity:1;fill-rule:evenodd;stroke:none"
             id="path3518" /></g><g
           id="g3520"
           transform="translate(230.8403,367.6733)"><path
             d="M 0,0 H 111.67 V 111.673 C 96.474,38.55 57.295,4.236 0,0"
             style="fill:#e5e1e5;fill-opacity:1;fill-rule:evenodd;stroke:none"
             id="path3522" /></g><g
           id="g3524"
           transform="translate(230.8403,256)"><path
             d="M 0,0 H 111.67 V 111.673 C 96.474,38.55 57.295,4.236 0,0"
             style="fill:#e5e1e5;fill-opacity:1;fill-rule:evenodd;stroke:none"
             id="path3526" /></g><g
           id="g3528"
           transform="translate(342.5107,256)"><path
             d="M 0,0 H 111.67 V 111.673 C 96.474,38.55 57.295,4.236 0,0"
             style="fill:#e5e1e5;fill-opacity:1;fill-rule:evenodd;stroke:none"
             id="path3530" /></g><g
           id="g3532"
           transform="translate(230.8403,144.3267)"><path
             d="M 0,0 H 111.67 V 111.673 C 96.474,38.55 57.295,4.236 0,0"
             style="fill:#e5e1e5;fill-opacity:1;fill-rule:evenodd;stroke:none"
             id="path3534" /></g><g
           id="g3536"
           transform="translate(230.8403,32.6533)"><path
             d="M 0,0 H 111.67 V 111.673 C 96.474,38.55 57.295,4.236 0,0"
             style="fill:#e5e1e5;fill-opacity:1;fill-rule:evenodd;stroke:none"
             id="path3538" /></g><g
           id="g3540"
           transform="translate(7.5,32.6533)"><path
             d="M 0,0 H 111.67 V 111.673 C 96.474,38.55 57.295,4.236 0,0"
             style="fill:#e5e1e5;fill-opacity:1;fill-rule:evenodd;stroke:none"
             id="path3542" /></g><g
           id="g3544"
           transform="translate(342.5098,169.6602)"><path
             d="M 0,0 V 86.34 H -111.67 -335.01 V -25.33 h 223.34 86.34"
             style="fill:none;stroke:#000000;stroke-width:15;stroke-linecap:round;stroke-linejoin:round;stroke-miterlimit:10;stroke-dasharray:none;stroke-opacity:1"
             id="path3546" /></g><g
           id="g3548"
           transform="translate(48.2529,32.6533)"><path
             d="M 0,0 H -40.753 V 335.02 H 70.917 V 0 H 32.568"
             style="fill:none;stroke:#000000;stroke-width:15;stroke-linecap:round;stroke-linejoin:round;stroke-miterlimit:10;stroke-dasharray:none;stroke-opacity:1"
             id="path3550" /></g><g
           id="g3552"
           transform="translate(454.1802,281.3198)"><path
             d="M 0,0 V 86.35 H -446.68 V -25.32 h 421.36"
             style="fill:none;stroke:#000000;stroke-width:15;stroke-linecap:round;stroke-linejoin:round;stroke-miterlimit:10;stroke-dasharray:none;stroke-opacity:1"
             id="path3554" /></g><g
           id="g3556"
           transform="translate(342.5098,169.6602)"><path
             d="M 0,0 V 86.34 309.69 H -111.67 V 86.34 -25.33 -137.01 H 0 v 66.49"
             style="fill:none;stroke:#000000;stroke-width:15;stroke-linecap:round;stroke-linejoin:round;stroke-miterlimit:10;stroke-dasharray:none;stroke-opacity:1"
             id="path3558" /></g><path
           d="m 119.17,144.327 h 111.67 v 335.02 H 119.17 Z"
           style="fill:none;stroke:#000000;stroke-width:15;stroke-linecap:round;stroke-linejoin:round;stroke-miterlimit:10;stroke-dasharray:none;stroke-opacity:1"
           id="path3560" /><g
           id="g3562"
           transform="translate(39.4385,332.042)"><path
             d="m 0,0 8.786,-44.503 c 0.315,-0.888 1.603,-0.888 1.918,0.028 L 24.44,-0.086"
             style="fill:none;stroke:#000000;stroke-width:15;stroke-linecap:round;stroke-linejoin:round;stroke-miterlimit:10;stroke-dasharray:none;stroke-opacity:1"
             id="path3564" /></g><g
           id="g3566"
           transform="translate(63.8789,332.042)"><path
             d="m 0,0 13.708,-44.503 c 0.344,-0.888 1.632,-0.888 1.946,0.028 l 8.815,44.389"
             style="fill:none;stroke:#000000;stroke-width:15;stroke-linecap:round;stroke-linejoin:round;stroke-miterlimit:10;stroke-dasharray:none;stroke-opacity:1"
             id="path3568" /></g><g
           id="g3570"
           transform="translate(194.6094,311.4644)"><path
             d="M 0,0 C 0,12.45 -10.16,22.581 -22.58,22.581 -35.029,22.581 -45.161,12.45 -45.161,0 c 0,-12.449 10.132,-22.581 22.581,-22.581 C -10.16,-22.581 0,-12.449 0,0 Z"
             style="fill:none;stroke:#000000;stroke-width:15;stroke-linecap:round;stroke-linejoin:round;stroke-miterlimit:10;stroke-dasharray:none;stroke-opacity:1"
             id="path3572" /></g><g
           id="g3574"
           transform="translate(281.7534,312.2944)"><path
             d="M 0,0 18.974,-21.579"
             style="fill:none;stroke:#000000;stroke-width:15;stroke-linecap:round;stroke-linejoin:round;stroke-miterlimit:10;stroke-dasharray:none;stroke-opacity:1"
             id="path3576" /></g><g
           id="g3578"
           transform="translate(276.3159,335.9058)"><path
             d="M 0,0 V -45.19"
             style="fill:none;stroke:#000000;stroke-width:15;stroke-linecap:round;stroke-linejoin:round;stroke-miterlimit:10;stroke-dasharray:none;stroke-opacity:1"
             id="path3580" /></g><g
           id="g3582"
           transform="translate(300.7275,324.1431)"><path
             d="m 0,0 c 0,-6.468 -5.667,-11.734 -12.392,-11.734 -3.348,0 -11.934,-0.029 -11.934,-0.029 0,0 -0.028,8.5 -0.028,11.763 0,2.69 -0.029,11.763 -0.029,11.763 h 11.991 C -5.667,11.763 0,6.497 0,0 Z"
             style="fill:none;stroke:#000000;stroke-width:15;stroke-linecap:round;stroke-linejoin:round;stroke-miterlimit:10;stroke-dasharray:none;stroke-opacity:1"
             id="path3584" /></g><g
           id="g3586"
           transform="translate(158.9502,177.9546)"><path
             d="M 0,0 V 45.076 L 30.479,0.944 c 0.572,-0.801 1.173,-0.4 1.173,0.573 l -0.429,43.645"
             style="fill:none;stroke:#000000;stroke-width:15;stroke-linecap:round;stroke-linejoin:round;stroke-miterlimit:10;stroke-dasharray:none;stroke-opacity:1"
             id="path3588" /></g><g
           id="g3590"
           transform="translate(161.0679,445.3179)"><path
             d="M 0,0 H 23.983"
             style="fill:none;stroke:#000000;stroke-width:15;stroke-linecap:round;stroke-linejoin:round;stroke-miterlimit:10;stroke-dasharray:none;stroke-opacity:1"
             id="path3592" /></g><g
           id="g3594"
           transform="translate(173.002,443.9155)"><path
             d="M 0,0 V -42.042"
             style="fill:none;stroke:#000000;stroke-width:15;stroke-linecap:round;stroke-linejoin:round;stroke-miterlimit:10;stroke-dasharray:none;stroke-opacity:1"
             id="path3596" /></g><g
           id="g3598"
           transform="translate(85.9155,88.4902)"><path
             d="m 0,0 c 0,12.449 -10.16,22.581 -22.581,22.581 -12.448,0 -22.58,-10.132 -22.58,-22.581 0,-12.421 10.132,-22.581 22.58,-22.581 C -10.16,-22.581 0,-12.421 0,0 Z"
             style="fill:none;stroke:#000000;stroke-width:15;stroke-linecap:round;stroke-linejoin:round;stroke-miterlimit:10;stroke-dasharray:none;stroke-opacity:1"
             id="path3600" /></g><g
           id="g3602"
           transform="translate(303.3032,130.4463)"><path
             d="m 0,0 9.53,-25.729 25.728,-9.53 3.95,3.949 154.712,154.717 c 9.702,9.702 9.702,25.586 0,35.26 -9.701,9.702 -25.556,9.702 -35.258,0 L 150.878,150.882 125.55,125.554 39.208,39.208 13.88,13.88 Z"
             style="fill:#ffc243;fill-opacity:1;fill-rule:evenodd;stroke:none"
             id="path3604" /></g><g
           id="g3606"
           transform="translate(303.3032,130.4463)"><path
             d="m 0,0 -25.729,-43.874 c -5.379,-10.704 6.383,-22.495 17.086,-17.085 l 25.099,14.71 18.802,10.99 -8.557,8.557 -9.072,9.072 z"
             style="fill:#fdd1a2;fill-opacity:1;fill-rule:evenodd;stroke:none"
             id="path3608" /></g><g
           id="g3610"
           transform="translate(454.1812,275.0605)"><path
             d="m 0,0 32.11,-32.14 10.932,10.933 c 9.702,9.702 9.702,25.586 0,35.259 -9.701,9.702 -25.556,9.702 -35.258,0 L 0,6.268 -3.148,3.148 Z"
             style="fill:#ec5469;fill-opacity:1;fill-rule:evenodd;stroke:none"
             id="path3612" /></g><g
           id="g3614"
           transform="translate(330.0044,103.7441)"><path
             d="m 0,0 -4.665,4.665 -8.7,-5.094 -10.102,-5.925 -25.099,-14.681 c -1.717,-0.887 -3.492,-1.317 -5.208,-1.374 -0.258,-8.843 9.472,-16.37 18.43,-11.848 l 25.098,14.71 18.803,10.99 z"
             style="fill:#ffbc85;fill-opacity:1;fill-rule:evenodd;stroke:none"
             id="path3616" /></g><g
           id="g3618"
           transform="translate(325.3394,108.4092)"><path
             d="m 0,0 4.665,-4.665 8.557,-8.557 3.949,3.95 L 160.952,134.512 147.73,147.734 17.171,17.172 10.389,10.389 3.95,3.95 Z"
             style="fill:#fea610;fill-opacity:1;fill-rule:evenodd;stroke:none"
             id="path3620" /></g><g
           id="g3622"
           transform="translate(473.0693,256.1431)"><path
             d="M 0,0 13.222,-13.222 24.154,-2.29 c 9.702,9.703 9.702,25.586 0,35.26 -2.346,2.346 -5.036,4.121 -7.899,5.323 3.807,-9.072 2.033,-20.005 -5.322,-27.36 z"
             style="fill:#e5374e;fill-opacity:1;fill-rule:evenodd;stroke:none"
             id="path3624" /></g><g
           id="g3626"
           transform="translate(320.9321,112.8164)"><path
             d="M 0,0 17.629,-17.629 -26.272,-43.33 c -10.703,-5.409 -22.465,6.382 -17.085,17.086 l 25.728,43.874 z"
             style="fill:none;stroke:#000000;stroke-width:15;stroke-linecap:round;stroke-linejoin:round;stroke-miterlimit:10;stroke-dasharray:none;stroke-opacity:1"
             id="path3628" /></g><g
           id="g3630"
           transform="translate(432.6025,189.2593)"><path
             d="m 0,0 64.621,64.594 c 9.702,9.702 9.702,25.586 0,35.26 -9.702,9.702 -25.557,9.702 -35.258,0 l -158.662,-158.667 35.258,-35.259 69.143,69.173"
             style="fill:none;stroke:#000000;stroke-width:15;stroke-linecap:round;stroke-linejoin:round;stroke-miterlimit:10;stroke-dasharray:none;stroke-opacity:1"
             id="path3632" /></g><g
           id="g3634"
           transform="translate(451.0332,278.2085)"><path
             d="M 0,0 35.258,-35.288"
             style="fill:none;stroke:#000000;stroke-width:15;stroke-linecap:round;stroke-linejoin:round;stroke-miterlimit:10;stroke-dasharray:none;stroke-opacity:1"
             id="path3636" /></g></g></g></g></svg>
