<svg enable-background="new 0 0 100 100" viewBox="0 0 100 100" xmlns="http://www.w3.org/2000/svg"><g id="Layer_1"/><g id="Layer_2"/><g id="Layer_3"/><g id="Layer_4"/><g id="Layer_5"/><g id="Layer_6"/><g id="Layer_7"/><g id="Layer_8"/><g id="Layer_9"/><g id="Layer_10"/><g id="Layer_11"/><g id="Layer_12"/><g id="Layer_13"/><g id="Layer_14"/><g id="Layer_15"/><g id="Layer_16"/><g id="Layer_17"/><g id="Layer_18"/><g id="Layer_19"/><g id="Layer_20"/><g id="Layer_21"/><g id="Layer_22"/><g id="Layer_23"/><g id="Layer_24"/><g id="Layer_25"/><g id="Layer_26"/><g id="Layer_27"/><g id="Layer_28"/><g id="Layer_29" display="none"/><g id="Layer_30"/><g id="Layer_31"/><g id="Layer_32"/><g id="Layer_35"><g id="Layer_34"/><g id="Layer_33"/><g><g><path d="m84.7 67h-6.6c-.8 0-1.5.7-1.5 1.5v8.5c-1.1-.6-2.4-1-3.7-1-3.7 0-6.7 2.5-6.7 5.7s3 5.7 6.7 5.7 6.7-2.5 6.7-5.7v-11.7h5.1c.8 0 1.5-.7 1.5-1.5s-.7-1.5-1.5-1.5zm-11.9 17.5c-2 0-3.7-1.2-3.7-2.7s1.7-2.7 3.7-2.7 3.7 1.2 3.7 2.7-1.6 2.7-3.7 2.7z"/><path d="m23.2 58.1c-3.2 0-5.7 2.6-5.7 5.7 0 3.2 2.6 5.7 5.7 5.7s5.7-2.6 5.7-5.7-2.5-5.7-5.7-5.7zm0 8.5c-1.5 0-2.7-1.2-2.7-2.7s1.2-2.7 2.7-2.7 2.7 1.2 2.7 2.7-1.2 2.7-2.7 2.7z"/><path d="m42.9 5h-29.3c-4.7 0-8.6 3.9-8.6 8.6v22.6c0 4.7 3.9 8.6 8.6 8.6h29.3c4.8 0 8.6-3.9 8.6-8.6v-22.6c0-4.7-3.9-8.6-8.6-8.6zm5.6 31.3c0 3.1-2.5 5.6-5.6 5.6h-29.3c-3.1 0-5.6-2.5-5.6-5.6v-22.7c0-3.1 2.5-5.6 5.6-5.6h29.3c3.1 0 5.6 2.5 5.6 5.6z"/><path d="m41.5 17.6c-1.2-.7-2.7-.7-4.1 0l-4.1 2.1v-1.1c0-1.6-1.3-2.9-2.9-2.9h-14.3c-1.6 0-2.9 1.3-2.9 2.9v12.6c0 1.6 1.3 2.9 2.9 2.9h14.3c1.6 0 2.9-1.3 2.9-2.9v-1.1l4.1 2.1c.7.4 1.5.6 2.2.6s1.3-.2 1.9-.5c1.1-.7 1.8-1.9 1.8-3.5v-7.6c0-1.7-.7-2.9-1.8-3.6zm-11.2 13.5h-14.1v-12.4h14.1zm10-2.3c0 .5-.1.8-.3 1-.2.1-.6.1-1.2-.2l-5.4-2.8v-3.7l5.4-2.8c.6-.3 1-.3 1.2-.2s.3.5.3 1z"/><path d="m86.4 5h-20.5c-4.7 0-8.6 3.8-8.6 8.6v31.5c0 4.7 3.8 8.6 8.6 8.6h20.5c4.7 0 8.6-3.8 8.6-8.6v-31.5c0-4.8-3.8-8.6-8.6-8.6zm5.6 40.1c0 3.1-2.5 5.6-5.6 5.6h-20.5c-3.1 0-5.6-2.5-5.6-5.6v-31.5c0-3.1 2.5-5.6 5.6-5.6h20.5c3.1 0 5.6 2.5 5.6 5.6z"/><path d="m86.1 27.8h-8.3c-.8 0-1.5.7-1.5 1.5s.7 1.5 1.5 1.5h8.3c.8 0 1.5-.7 1.5-1.5s-.7-1.5-1.5-1.5z"/><path d="m66.2 30.8h2.8c.8 0 1.5-.7 1.5-1.5s-.7-1.5-1.5-1.5h-2.7c-.8 0-1.5.7-1.5 1.5s.6 1.5 1.4 1.5z"/><path d="m86.1 20.2h-19.9c-.8 0-1.5.7-1.5 1.5s.7 1.5 1.5 1.5h19.8c.8 0 1.5-.7 1.5-1.5s-.6-1.5-1.4-1.5z"/><path d="m66.2 15.6h8.3c.8 0 1.5-.7 1.5-1.5s-.7-1.5-1.5-1.5h-8.3c-.8 0-1.5.7-1.5 1.5s.7 1.5 1.5 1.5z"/><path d="m86.1 12.6h-2.7c-.8 0-1.5.7-1.5 1.5s.7 1.5 1.5 1.5h2.7c.8 0 1.5-.7 1.5-1.5s-.7-1.5-1.5-1.5z"/><path d="m81.5 43.1h-15.3c-.8 0-1.5.7-1.5 1.5s.7 1.5 1.5 1.5h15.3c.8 0 1.5-.7 1.5-1.5s-.7-1.5-1.5-1.5z"/><path d="m66.2 38.5h8.3c.8 0 1.5-.7 1.5-1.5s-.7-1.5-1.5-1.5h-8.3c-.8 0-1.5.7-1.5 1.5s.7 1.5 1.5 1.5z"/><path d="m86.1 35.5h-2.7c-.8 0-1.5.7-1.5 1.5s.7 1.5 1.5 1.5h2.7c.8 0 1.5-.7 1.5-1.5s-.7-1.5-1.5-1.5z"/><path d="m40.8 50.7h-25.1c-5.9 0-10.7 4.8-10.7 10.6v23c0 5.9 4.8 10.7 10.7 10.7h25.2c5.9 0 10.7-4.8 10.7-10.7v-23c-.1-5.8-4.9-10.6-10.8-10.6zm0 41.3h-25.1c-4.3 0-7.7-3.4-7.7-7.7v-2.3l5.2-5.8c.4-.4 1-.9 1.7-.9s1.3.5 1.6.9l5.6 6.3c.3.3.7.5 1.1.5s.8-.2 1.1-.5l9-10.1c2.1-2.3 4.6-2.2 6.6 0l8.6 9.7v2.3c0 4.2-3.4 7.6-7.7 7.6zm7.7-14.5-6.4-7.2c-1.6-1.8-3.5-2.7-5.5-2.7s-3.9.9-5.5 2.7l-7.9 8.8-4.5-5c-2.2-2.4-5.4-2.4-7.7 0l-3 3.3v-16.1c0-4.2 3.4-7.7 7.7-7.7h25.2c4.2 0 7.7 3.4 7.7 7.7v16.2z"/><path d="m86.4 59.5h-20.5c-4.7 0-8.6 3.8-8.6 8.6v18.3c0 4.7 3.8 8.6 8.6 8.6h20.5c4.7 0 8.6-3.8 8.6-8.6v-18.3c0-4.7-3.8-8.6-8.6-8.6zm5.6 26.9c0 3.1-2.5 5.6-5.6 5.6h-20.5c-3.1 0-5.6-2.5-5.6-5.6v-18.3c0-3.1 2.5-5.6 5.6-5.6h20.5c3.1 0 5.6 2.5 5.6 5.6z"/></g></g></g></svg>