<svg id="Outline_00000068660976892517701140000011396894017443136155_" enable-background="new 0 0 48 48" viewBox="0 0 48 48" xmlns="http://www.w3.org/2000/svg"><g><path d="m33 26.98047c-.41406 0-.75.33594-.75.75v8.26953c0 .68945-.56055 1.25-1.25 1.25h-19c-.68945 0-1.25-.56055-1.25-1.25v-19c0-.68945.56055-1.25 1.25-1.25h8.27002c.41406 0 .75-.33594.75-.75s-.33594-.75-.75-.75h-8.27002c-1.5166 0-2.75 1.2334-2.75 2.75v19c0 1.5166 1.2334 2.75 2.75 2.75h19c1.5166 0 2.75-1.2334 2.75-2.75v-8.26953c0-.41406-.33594-.75-.75-.75z"/><path d="m37.94434 11.46973-1.41406-1.41406c-1.07178-1.07129-2.81641-1.07324-3.88916 0l-13.43507 13.43456c-.08252.08203-.14453.18262-.18115.29297 0 0-2.11253 6.33856-2.12107 6.36418-.19151.57462.37872 1.13571.9487.9493l6.36377-2.12109c.11035-.03711.21094-.09961.29297-.18164 0 0 13.41644-13.41741 13.43455-13.43553 1.04171-1.04178 1.03746-2.85175.00052-3.88869zm-17.14728 12.55108 10.25323-10.25323 3.1817 3.18213-10.25299 10.25335zm-.73279 1.38831 2.52661 2.52686-3.7901 1.26324zm16.81952-11.11127-1.59125 1.59131-3.1817-3.18213 1.59082-1.59082c.48682-.48828 1.28027-.48926 1.76807 0 0 0 1.413 1.413 1.41406 1.41406.48262.48263.48168 1.2859 0 1.76758z"/></g></svg>