<?xml version="1.0" encoding="UTF-8"?>
<svg xmlns="http://www.w3.org/2000/svg" viewBox="0 0 64 64" width="512" height="512"><g id="_20-Elearning" data-name="20-Elearning"><path d="M61,48H60V19a5.00588,5.00588,0,0,0-5-5H52V13a3.00328,3.00328,0,0,0-3-3H48V9a3.00328,3.00328,0,0,0-3-3H36a4.9974,4.9974,0,0,0-4,2.00293A4.9974,4.9974,0,0,0,28,6H19a3.00328,3.00328,0,0,0-3,3v1H15a3.00328,3.00328,0,0,0-3,3v1H9a5.00588,5.00588,0,0,0-5,5V48H3a.99974.99974,0,0,0-1,1v2a7.00818,7.00818,0,0,0,7,7H55a7.00818,7.00818,0,0,0,7-7V49A.99974.99974,0,0,0,61,48ZM15,38H49a3.00328,3.00328,0,0,0,3-3V20h2V44H10V20h2V35A3.00328,3.00328,0,0,0,15,38ZM49,12a1.001,1.001,0,0,1,1,1V35a1.001,1.001,0,0,1-1,1H33a3.00328,3.00328,0,0,1,3-3h9a3.00328,3.00328,0,0,0,3-3V12ZM36,8h9a1.001,1.001,0,0,1,1,1V30a1.001,1.001,0,0,1-1,1H36a4.96516,4.96516,0,0,0-3,1.01257V11A3.00328,3.00328,0,0,1,36,8ZM18,9a1.001,1.001,0,0,1,1-1h9a3.00328,3.00328,0,0,1,3,3V32.01257A4.96516,4.96516,0,0,0,28,31H19a1.001,1.001,0,0,1-1-1Zm-4,4a1.001,1.001,0,0,1,1-1h1V30a3.00328,3.00328,0,0,0,3,3h9a3.00328,3.00328,0,0,1,3,3H15a1.001,1.001,0,0,1-1-1ZM6,19a3.00328,3.00328,0,0,1,3-3h3v2H9a.99974.99974,0,0,0-1,1V45a.99974.99974,0,0,0,1,1H55a.99974.99974,0,0,0,1-1V19a.99974.99974,0,0,0-1-1H52V16h3a3.00328,3.00328,0,0,1,3,3V48H6ZM25,50H39v2H25Zm35,1a5.00588,5.00588,0,0,1-5,5H9a5.00588,5.00588,0,0,1-5-5V50H23v3a.99974.99974,0,0,0,1,1H40a.99974.99974,0,0,0,1-1V50H60ZM20,12a.99974.99974,0,0,1,1-1h7a1,1,0,0,1,0,2H21A.99974.99974,0,0,1,20,12Zm0,5a.99974.99974,0,0,1,1-1h7a1,1,0,0,1,0,2H21A.99974.99974,0,0,1,20,17Zm0,5a.99974.99974,0,0,1,1-1h7a1,1,0,0,1,0,2H21A.99974.99974,0,0,1,20,22Zm0,5a.99974.99974,0,0,1,1-1h7a1,1,0,0,1,0,2H21A.99974.99974,0,0,1,20,27ZM35,12a.99974.99974,0,0,1,1-1h7a1,1,0,0,1,0,2H36A.99974.99974,0,0,1,35,12Zm0,5a.99974.99974,0,0,1,1-1h7a1,1,0,0,1,0,2H36A.99974.99974,0,0,1,35,17Zm0,5a.99974.99974,0,0,1,1-1h7a1,1,0,0,1,0,2H36A.99974.99974,0,0,1,35,22Zm0,5a.99974.99974,0,0,1,1-1h7a1,1,0,0,1,0,2H36A.99974.99974,0,0,1,35,27Z"/></g></svg>
