<svg id="SVGRoot" height="512" viewBox="0 0 512 512" width="512" xmlns="http://www.w3.org/2000/svg" xmlns:svg="http://www.w3.org/2000/svg"><g id="g2931" clip-rule="evenodd" fill-rule="evenodd" stroke-linecap="round" stroke-linejoin="round" stroke-miterlimit="10" transform="translate(-3.997 -7.744)"><path id="path2904" d="m219.16992 293.57617c-73.59778-.00004-133.49599 59.8978-133.498045 133.49536l-.002 38.55447c-.000533 18.47828 15.214965 33.69516 33.693355 33.69513h281.27149c18.47843.00011 33.6946-15.21485 33.69531-33.69317a11.0011 11.001039 0 0 0 0-.002v-38.55447c.003-73.59641-59.8936-133.49529-133.49024-133.49536zm0 21.99988h81.66992c61.70663.00006 111.49266 49.78893 111.49024 111.49548v38.55447c-.00025 6.58901-5.10635 11.69529-11.69531 11.69525h-281.27149c-6.58844.00001-11.69355-5.10677-11.69336-11.69525l.002-38.55447c.002-61.70821 49.78976-111.49552 111.49804-111.49548z"/><path id="path2907" d="m197.28334 355.01367a11.00016 11 0 0 0 -7.23839 4.29883 11.00016 11 0 0 0 2.21683 15.39648c19.55321 14.62955 43.32153 22.5371 67.74122 22.53711 24.41962-.00005 48.18612-7.9076 67.73926-22.53711a11.00016 11 0 0 0 2.21878-15.39648 11.00016 11 0 0 0 -15.39865-2.21875c-15.75136 11.78503-34.88833 18.1523-54.55939 18.15234-19.67112 0-38.80995-6.36728-54.56133-18.15234a11.00016 11 0 0 0 -8.15833-2.08008z"/><path id="path2910" d="m259.99898 69c-51.78953 0-92.665 46.84818-92.665 102.87109 0 56.02292 40.87547 102.86914 92.665 102.86914s92.665-46.84622 92.665-102.86914c0-56.02291-40.87547-102.87109-92.665-102.87109zm0 22c38.41426 0 70.66524 35.41714 70.66524 80.87109 0 45.45396-32.25098 80.86914-70.66524 80.86914s-70.66524-35.41518-70.66524-80.86914c0-45.45395 32.25098-80.87109 70.66524-80.87109z"/><path id="path2913" d="m137.48779 252.74609c-73.596857.00006-133.4936799 59.90093-133.4907899 133.49734v38.55448c.0007132 18.4782 15.2170769 33.69313 33.6954529 33.69318h18.142654a11.000046 10.999941 0 0 0 11.000046-10.99994 11.000046 10.999941 0 0 0 -11.000046-10.99994h-18.142654c-6.588251-.00002-11.694065-5.10531-11.695361-11.6933v-38.55643c-.002423-61.70656 49.783914-111.49546 111.490698-111.49551h40.83416a11.000046 10.999941 0 0 0 11.00005-10.99994 11.000046 10.999941 0 0 0 -11.00005-10.99994z"/><path id="path2916" d="m178.32858 28.169922c-51.79047-.000012-92.664517 46.84784-92.664518 102.871098.000007 36.33705 17.147888 70.19399 45.924058 88.83984a11.000055 11 0 0 0 15.21297-3.24805 11.000055 11 0 0 0 -3.25002-15.21484c-21.84036-14.15171-35.88689-41.00228-35.8869-70.37695 0-45.454352 32.2495-80.871107 70.66441-80.871098 12.18105.000056 24.16888 3.589262 34.8869 10.5625a11.000055 11 0 0 0 15.21882-3.220703 11.000055 11 0 0 0 -3.22071-15.21875c-14.13617-9.197114-30.35266-14.122971-46.88305-14.123047a11.001155 11.0011 0 0 0 -.002 0z"/><path id="path2919" d="m341.67192 252.74414a11.000046 11.000046 0 0 0 -11.00005 11.00005 11.000046 11.000046 0 0 0 11.00005 11.00004h40.83416c61.70679.00005 111.49312 49.78942 111.4907 111.49656v38.55485c-.00025 6.58904-5.10643 11.69339-11.69536 11.69341h-18.14266a11.000046 11.000046 0 0 0 -11.00004 11.00004 11.000046 11.000046 0 0 0 11.00004 11.00005h18.14266c18.47838-.00004 33.69474-15.21511 33.69545-33.6935v-38.55485c.003-73.59711-59.89393-133.49659-133.49079-133.49665z"/><path id="path2922" d="m341.66579 28.166016c-16.5304-.000018-32.74644 4.925811-46.88261 14.122953a10.999951 10.999927 0 0 0 -3.22264 15.21865 10.999951 10.999927 0 0 0 15.21868 3.220682c10.71803-6.97326 22.7055-10.562443 34.88657-10.56243 38.41447.000114 70.66569 35.416601 70.66569 80.870559 0 29.37449-14.0464 56.22683-35.88656 70.37845a10.999951 10.999927 0 0 0 -3.24998 15.21279 10.999951 10.999927 0 0 0 15.21282 3.24998c28.77591-18.64573 45.92361-52.50441 45.92362-88.84122 0-56.022776-40.87571-102.87026-92.66559-102.870414z"/></g></svg>