<?xml version="1.0" encoding="UTF-8" standalone="no"?>
<!-- Created with Inkscape (http://www.inkscape.org/) -->

<svg
   version="1.1"
   id="svg2019"
   xml:space="preserve"
   width="682.66669"
   height="682.66669"
   viewBox="0 0 682.66669 682.66669"
   xmlns="http://www.w3.org/2000/svg"
   xmlns:svg="http://www.w3.org/2000/svg"><defs
     id="defs2023"><clipPath
       clipPathUnits="userSpaceOnUse"
       id="clipPath2033"><path
         d="M 0,512 H 512 V 0 H 0 Z"
         id="path2031" /></clipPath></defs><g
     id="g2025"
     transform="matrix(1.3333333,0,0,-1.3333333,0,682.66667)"><g
       id="g2027"><g
         id="g2029"
         clip-path="url(#clipPath2033)"><g
           id="g2035"
           transform="translate(235.8086,486.7075)"><path
             d="m 0,0 c 0,9.79 -7.995,17.792 -17.775,17.792 h -170.213 c -9.781,0 -17.776,-8.002 -17.776,-17.792 v -76.051 c 0,-9.79 7.995,-17.793 17.776,-17.793 h 170.213 c 9.78,0 17.775,8.003 17.775,17.793 z"
             style="fill:#ffdb4e;fill-opacity:1;fill-rule:evenodd;stroke:none"
             id="path2037" /></g><g
           id="g2039"
           transform="translate(379.0039,331.5405)"><path
             d="m 0,0 c -3.261,12.259 -9.611,22.844 -17.975,31.215 -17.009,16.97 -42.326,24.66 -67.16,17.991 -12.247,-3.263 -22.85,-9.62 -31.184,-17.991 -16.954,-17.027 -24.637,-42.367 -18.003,-67.226 6.492,-24.177 24.92,-41.97 47.231,-48.667 16.783,-5.562 42.979,-19.552 66.99,15.409 14.147,13.054 22.51,31.612 22.482,51.249 C 2.381,-12.061 1.615,-6.016 0,0"
             style="fill:#b1d7fe;fill-opacity:1;fill-rule:evenodd;stroke:none"
             id="path2041" /></g><g
           id="g2043"
           transform="translate(147.7256,232.1631)"><path
             d="m 0,0 c -20.214,35.074 -65.035,47.106 -100.075,26.845 -35.04,-20.262 -47.061,-65.097 -26.82,-100.172 20.214,-35.103 65.036,-47.106 100.076,-26.845 C 8.222,-79.939 20.241,-35.074 0,0"
             style="fill:#ff8389;fill-opacity:1;fill-rule:evenodd;stroke:none"
             id="path2045" /></g><g
           id="g2047"
           transform="translate(110.6719,210.7383)"><path
             d="m 0,0 c -8.42,14.614 -27.046,19.608 -41.646,11.181 -14.572,-8.429 -19.561,-27.101 -11.141,-41.687 8.42,-14.586 27.046,-19.58 41.645,-11.152 C 3.431,-33.23 8.42,-14.586 0,0"
             style="fill:#e7ecf1;fill-opacity:1;fill-rule:evenodd;stroke:none"
             id="path2049" /></g><g
           id="g2051"
           transform="translate(371.6895,225.4375)"><path
             d="m 0,0 v 16.998 c 0,10.613 -5.698,17.253 -12.786,19.836 -11.651,4.285 -27.103,-2.327 -27.103,-19.836 v 69.326 c 0,28.15 -39.887,28.15 -39.887,0 V 21.425 -56.981 c 0,-15.154 -3.204,-26.59 -13.439,-13.849 -15.79,22.986 -27.386,35.5 -49.556,31.641 -13.011,-2.298 -17.973,-14.387 -9.071,-25.852 l 63.163,-92.737 c 13.524,-19.892 15.395,-32.548 15.395,-50.284 0,-5.42 4.45,-9.875 9.893,-9.875 H 54.771 c 5.444,0 9.895,4.455 9.895,9.875 v 19.296 11.294 c 0,25.654 11.708,23.242 15.082,54.598 v 105.876 c 0,28.15 -39.86,28.179 -39.86,0 L 39.888,0 C 39.888,28.15 0,28.15 0,0"
             style="fill:#ffece4;fill-opacity:1;fill-rule:evenodd;stroke:none"
             id="path2053" /></g><g
           id="g2055"
           transform="translate(235.8086,486.7075)"><path
             d="m 0,0 c 0,9.79 -7.995,17.792 -17.775,17.792 h -36.288 c 9.781,0 17.775,-8.002 17.775,-17.792 v -19.637 -35.954 -20.46 c 0,-9.79 -7.994,-17.793 -17.775,-17.793 h 36.288 c 9.78,0 17.775,8.003 17.775,17.793 z"
             style="fill:#ffaf5d;fill-opacity:1;fill-rule:evenodd;stroke:none"
             id="path2057" /></g><g
           id="g2059"
           transform="translate(379.0039,331.5405)"><path
             d="m 0,0 c -3.261,12.259 -9.611,22.844 -17.975,31.215 -17.009,16.97 -42.326,24.66 -67.16,17.991 -8.646,-2.298 -16.443,-6.158 -23.219,-11.152 23.616,4.994 47.288,-2.781 63.419,-18.9 8.364,-8.342 14.713,-18.956 17.974,-31.186 1.616,-6.045 2.381,-12.089 2.381,-18.02 0.028,-14.869 -4.763,-29.115 -13.211,-40.806 5.273,3.178 11.936,3.717 17.69,1.589 14.147,13.054 22.51,31.612 22.482,51.249 C 2.381,-12.061 1.615,-6.016 0,0"
             style="fill:#8bc6f8;fill-opacity:1;fill-rule:evenodd;stroke:none"
             id="path2061" /></g><g
           id="g2063"
           transform="translate(451.4375,208.4395)"><path
             d="M 0,0 C 0,18.843 -17.86,25.086 -29.683,18.701 -23.843,15.551 -19.505,9.308 -19.505,0 v -105.875 c -3.374,-31.357 -15.082,-28.945 -15.082,-54.599 v -11.294 -19.296 c 0,-5.42 -4.451,-9.875 -9.894,-9.875 h 19.504 c 5.444,0 9.895,4.455 9.895,9.875 v 19.296 11.294 c 0,25.654 11.708,23.242 15.082,54.599 v 60.33 6.413 z"
             style="fill:#ffddce;fill-opacity:1;fill-rule:evenodd;stroke:none"
             id="path2065" /></g><g
           id="g2067"
           transform="translate(371.6895,225.4375)"><path
             d="M 0,0 C 0,28.15 39.888,28.15 39.888,0 V -63.054"
             style="fill:none;stroke:#000000;stroke-width:15;stroke-linecap:round;stroke-linejoin:round;stroke-miterlimit:10;stroke-dasharray:none;stroke-opacity:1"
             id="path2069" /></g><g
           id="g2071"
           transform="translate(411.5771,208.4395)"><path
             d="M 0,0 C 0,28.179 39.86,28.15 39.86,0 V -45.545"
             style="fill:none;stroke:#000000;stroke-width:15;stroke-linecap:round;stroke-linejoin:round;stroke-miterlimit:10;stroke-dasharray:none;stroke-opacity:1"
             id="path2073" /></g><g
           id="g2075"
           transform="translate(291.9131,311.7612)"><path
             d="M 0,0 C 0,28.15 39.888,28.15 39.888,0 V -129.344"
             style="fill:none;stroke:#000000;stroke-width:15;stroke-linecap:round;stroke-linejoin:round;stroke-miterlimit:10;stroke-dasharray:none;stroke-opacity:1"
             id="path2077" /></g><g
           id="g2079"
           transform="translate(331.8008,242.4355)"><path
             d="M 0,0 C 0,28.15 39.889,28.15 39.889,0 V -70.035"
             style="fill:none;stroke:#000000;stroke-width:15;stroke-linecap:round;stroke-linejoin:round;stroke-miterlimit:10;stroke-dasharray:none;stroke-opacity:1"
             id="path2081" /></g><g
           id="g2083"
           transform="translate(291.9131,311.7612)"><path
             d="M 0,0 V -139.333"
             style="fill:none;stroke:#000000;stroke-width:15;stroke-linecap:round;stroke-linejoin:round;stroke-miterlimit:10;stroke-dasharray:none;stroke-opacity:1"
             id="path2085" /></g><g
           id="g2087"
           transform="translate(291.9131,183.042)"><path
             d="m 0,0 v -14.586 c 0,-15.153 -3.204,-26.589 -13.438,-13.848 -15.791,22.986 -27.386,35.5 -49.556,31.641 -13.012,-2.299 -17.974,-14.388 -9.071,-25.852 l 63.163,-92.737 c 13.523,-19.892 15.394,-32.549 15.394,-50.285 0,-5.42 4.45,-9.875 9.894,-9.875 h 118.162 c 5.443,0 9.894,4.455 9.894,9.875 v 19.297 11.294 c 0,25.653 11.708,23.241 15.082,54.598 v 25.682"
             style="fill:none;stroke:#000000;stroke-width:15;stroke-linecap:round;stroke-linejoin:round;stroke-miterlimit:10;stroke-dasharray:none;stroke-opacity:1"
             id="path2089" /></g><g
           id="g2091"
           transform="translate(418.9199,420.7017)"><path
             d="M 0,0 -57.891,-57.946"
             style="fill:none;stroke:#000000;stroke-width:15;stroke-linecap:round;stroke-linejoin:round;stroke-miterlimit:10;stroke-dasharray:none;stroke-opacity:1"
             id="path2093" /></g><g
           id="g2095"
           transform="translate(436.1855,313.521)"><path
             d="M 0,0 H -54.801"
             style="fill:none;stroke:#000000;stroke-width:15;stroke-linecap:round;stroke-linejoin:round;stroke-miterlimit:10;stroke-dasharray:none;stroke-opacity:1"
             id="path2097" /></g><g
           id="g2099"
           transform="translate(232.2646,393.2041)"><path
             d="M 0,0 30.42,-30.449"
             style="fill:none;stroke:#000000;stroke-width:15;stroke-linecap:round;stroke-linejoin:round;stroke-miterlimit:10;stroke-dasharray:none;stroke-opacity:1"
             id="path2101" /></g><g
           id="g2103"
           transform="translate(106.9297,392.8638)"><path
             d="m 0,0 h -59.109 c -9.781,0 -17.776,8.002 -17.776,17.792 v 76.052 c 0,9.79 7.995,17.792 17.776,17.792 h 170.213 c 9.78,0 17.775,-8.002 17.775,-17.792 V 17.792 C 128.879,8.031 120.884,0 111.104,0 h -76.46"
             style="fill:none;stroke:#000000;stroke-width:15;stroke-linecap:round;stroke-linejoin:round;stroke-miterlimit:10;stroke-dasharray:none;stroke-opacity:1"
             id="path2105" /></g><g
           id="g2107"
           transform="translate(121.8984,467.0703)"><path
             d="M 0,0 H 78.303 M -61.462,0 h 22.821"
             style="fill:none;stroke:#000000;stroke-width:15;stroke-linecap:round;stroke-linejoin:round;stroke-miterlimit:10;stroke-dasharray:none;stroke-opacity:1"
             id="path2109" /></g><g
           id="g2111"
           transform="translate(150.0498,240.8184)"><path
             d="M 0,0 94.632,54.711"
             style="fill:none;stroke:#000000;stroke-width:15;stroke-linecap:round;stroke-linejoin:round;stroke-miterlimit:10;stroke-dasharray:none;stroke-opacity:1"
             id="path2113" /></g><g
           id="g2115"
           transform="translate(291.9131,246.8623)"><path
             d="m 0,0 c -22.312,6.697 -40.739,24.49 -47.231,48.667 -9.922,37.118 12.077,75.285 49.187,85.217 37.081,9.961 75.212,-12.089 85.135,-49.206 C 94.036,58.798 85.418,32.407 66.99,15.409"
             style="fill:none;stroke:#000000;stroke-width:15;stroke-linecap:round;stroke-linejoin:round;stroke-miterlimit:10;stroke-dasharray:none;stroke-opacity:1"
             id="path2117" /></g><g
           id="g2119"
           transform="translate(138.7383,431.1162)"><path
             d="M 0,0 H -78.302 M 61.463,0 H 38.641"
             style="fill:none;stroke:#000000;stroke-width:15;stroke-linecap:round;stroke-linejoin:round;stroke-miterlimit:10;stroke-dasharray:none;stroke-opacity:1"
             id="path2121" /></g><g
           id="g2123"
           transform="translate(492.3467,313.521)"><path
             d="m 0,0 c 0,15.522 -12.56,28.122 -28.066,28.122 -15.508,0 -28.095,-12.6 -28.095,-28.122 0,-15.522 12.587,-28.094 28.095,-28.094 C -12.56,-28.094 0,-15.522 0,0"
             style="fill:#ff8389;fill-opacity:1;fill-rule:evenodd;stroke:none"
             id="path2125" /></g><g
           id="g2127"
           transform="translate(488.4336,480.3794)"><path
             d="m 0,0 c -16.727,16.743 -43.885,16.743 -60.611,0 -16.755,-16.743 -16.755,-43.928 0,-60.671 16.726,-16.771 43.884,-16.771 60.611,0 C 16.755,-43.928 16.755,-16.743 0,0"
             style="fill:#ff8389;fill-opacity:1;fill-rule:evenodd;stroke:none"
             id="path2129" /></g><g
           id="g2131"
           transform="translate(488.4336,419.7085)"><path
             d="m 0,0 c 16.755,16.743 16.755,43.928 0,60.671 -12.247,12.259 -30.107,15.551 -45.331,9.847 7.371,-1.788 14.373,-5.562 20.156,-11.351 16.727,-16.743 16.727,-43.928 0,-60.671 -4.478,-4.483 -9.723,-7.775 -15.28,-9.847 C -26.394,-14.785 -10.971,-10.982 0,0"
             style="fill:#ff6677;fill-opacity:1;fill-rule:evenodd;stroke:none"
             id="path2133" /></g><g
           id="g2135"
           transform="translate(492.3467,313.521)"><path
             d="m 0,0 c 0,15.522 -12.56,28.122 -28.066,28.122 -5.132,0 -9.952,-1.391 -14.09,-3.803 9.978,-4.285 16.981,-14.245 16.981,-25.823 0,-10.358 -5.641,-19.439 -14.005,-24.291 3.402,-1.476 7.144,-2.299 11.114,-2.299 C -12.56,-28.094 0,-15.522 0,0"
             style="fill:#ff6677;fill-opacity:1;fill-rule:evenodd;stroke:none"
             id="path2137" /></g><g
           id="g2139"
           transform="translate(427.8223,480.3794)"><path
             d="m 0,0 c 16.727,16.743 43.885,16.743 60.611,0 16.755,-16.743 16.755,-43.928 0,-60.671 C 43.885,-77.442 16.727,-77.442 0,-60.671 -16.755,-43.928 -16.755,-16.743 0,0 Z"
             style="fill:none;stroke:#000000;stroke-width:15;stroke-linecap:round;stroke-linejoin:round;stroke-miterlimit:10;stroke-dasharray:none;stroke-opacity:1"
             id="path2141" /></g><g
           id="g2143"
           transform="translate(464.2803,341.6426)"><path
             d="m 0,0 c 15.507,0 28.066,-12.6 28.066,-28.122 0,-15.522 -12.559,-28.093 -28.066,-28.093 -15.508,0 -28.095,12.571 -28.095,28.093 C -28.095,-12.6 -15.508,0 0,0 Z"
             style="fill:none;stroke:#000000;stroke-width:15;stroke-linecap:round;stroke-linejoin:round;stroke-miterlimit:10;stroke-dasharray:none;stroke-opacity:1"
             id="path2145" /></g><g
           id="g2147"
           transform="translate(118.667,231.4819)"><path
             d="m 0,0 c 20.241,-35.074 8.222,-79.939 -26.819,-100.172 -6.521,-3.774 -13.41,-6.441 -20.384,-8.031 16.415,-2.922 33.879,-0.283 49.442,8.712 C 37.28,-79.258 49.3,-34.393 29.059,0.681 12.615,29.229 -20.129,42.509 -50.633,35.557 -30.107,31.896 -11.255,19.523 0,0"
             style="fill:#ff6677;fill-opacity:1;fill-rule:evenodd;stroke:none"
             id="path2149" /></g><g
           id="g2151"
           transform="translate(120.9063,131.9912)"><path
             d="m 0,0 c -35.04,-20.261 -79.861,-8.258 -100.075,26.845 -20.241,35.074 -8.221,79.91 26.819,100.172 35.04,20.261 79.861,8.229 100.075,-26.845 C 47.061,65.098 35.041,20.233 0,0 Z"
             style="fill:none;stroke:#000000;stroke-width:15;stroke-linecap:round;stroke-linejoin:round;stroke-miterlimit:10;stroke-dasharray:none;stroke-opacity:1"
             id="path2153" /></g><g
           id="g2155"
           transform="translate(99.5303,169.0806)"><path
             d="m 0,0 c -14.6,-8.428 -33.226,-3.434 -41.646,11.152 -8.419,14.586 -3.43,33.258 11.142,41.686 14.6,8.428 33.226,3.434 41.646,-11.18 C 19.562,27.072 14.572,8.428 0,0 Z"
             style="fill:none;stroke:#000000;stroke-width:15;stroke-linecap:round;stroke-linejoin:round;stroke-miterlimit:10;stroke-dasharray:none;stroke-opacity:1"
             id="path2157" /></g></g></g></g></svg>
