<svg version="1.1" id="Capa_1" xmlns="http://www.w3.org/2000/svg" xmlns:xlink="http://www.w3.org/1999/xlink" x="0px" y="0px" viewBox="0 0 512 512" style="enable-background:new 0 0 512 512;" xml:space="preserve">
<g>
	<g>
		<path style="fill:#EAF6FF;" d="M138.821,239.837H19.622c-6.695,0-12.122-5.427-12.122-12.122V19.622&#10;&#9;&#9;&#9;C7.5,12.927,12.927,7.5,19.622,7.5h119.199c6.695,0,12.122,5.427,12.122,12.122v208.094&#10;&#9;&#9;&#9;C150.943,234.41,145.516,239.837,138.821,239.837z"/>
		<path style="fill:#FD8087;" d="M315.6,239.837H196.4c-6.695,0-12.122-5.427-12.122-12.122V19.622&#10;&#9;&#9;&#9;c0-6.695,5.427-12.122,12.122-12.122H315.6c6.695,0,12.122,5.427,12.122,12.122v208.094&#10;&#9;&#9;&#9;C327.722,234.41,322.294,239.837,315.6,239.837z"/>
		<path style="fill:#EAF6FF;" d="M492.378,239.837H373.179c-6.695,0-12.122-5.427-12.122-12.122V19.622&#10;&#9;&#9;&#9;c0-6.695,5.427-12.122,12.122-12.122h119.199c6.695,0,12.122,5.427,12.122,12.122v208.094&#10;&#9;&#9;&#9;C504.5,234.41,499.073,239.837,492.378,239.837z"/>
		<path style="fill:#FD8087;" d="M138.821,504.5H19.622c-6.695,0-12.122-5.427-12.122-12.122V284.285&#10;&#9;&#9;&#9;c0-6.695,5.427-12.122,12.122-12.122h119.199c6.695,0,12.122,5.427,12.122,12.122v208.094&#10;&#9;&#9;&#9;C150.943,499.073,145.516,504.5,138.821,504.5z"/>
		<path style="fill:#EAF6FF;" d="M315.6,504.5H196.4c-6.695,0-12.122-5.427-12.122-12.122V284.285&#10;&#9;&#9;&#9;c0-6.695,5.427-12.122,12.122-12.122H315.6c6.695,0,12.122,5.427,12.122,12.122v208.094&#10;&#9;&#9;&#9;C327.722,499.073,322.294,504.5,315.6,504.5z"/>
		<path style="fill:#EAF6FF;" d="M492.378,504.5H373.179c-6.695,0-12.122-5.427-12.122-12.122V284.285&#10;&#9;&#9;&#9;c0-6.695,5.427-12.122,12.122-12.122h119.199c6.695,0,12.122,5.427,12.122,12.122v208.094&#10;&#9;&#9;&#9;C504.5,499.073,499.073,504.5,492.378,504.5z"/>
		<path style="fill:#D8ECFE;" d="M138.821,7.5h-28.285c6.695,0,12.122,5.427,12.122,12.122v208.094&#10;&#9;&#9;&#9;c0,6.695-5.427,12.122-12.122,12.122h28.285c6.695,0,12.122-5.427,12.122-12.122V19.622C150.943,12.927,145.516,7.5,138.821,7.5z"/>
		<path style="fill:#FE646F;" d="M315.6,7.5h-28.285c6.695,0,12.122,5.427,12.122,12.122v208.094&#10;&#9;&#9;&#9;c0,6.695-5.427,12.122-12.122,12.122H315.6c6.695,0,12.122-5.427,12.122-12.122V19.622C327.722,12.927,322.294,7.5,315.6,7.5z"/>
		<path style="fill:#D8ECFE;" d="M492.378,7.5h-28.285c6.695,0,12.122,5.427,12.122,12.122v208.094&#10;&#9;&#9;&#9;c0,6.695-5.427,12.122-12.122,12.122h28.285c6.695,0,12.122-5.427,12.122-12.122V19.622C504.5,12.927,499.073,7.5,492.378,7.5z"/>
		<path style="fill:#FE646F;" d="M138.821,272.163h-28.285c6.695,0,12.122,5.427,12.122,12.122v208.094&#10;&#9;&#9;&#9;c0,6.695-5.427,12.122-12.122,12.122h28.285c6.695,0,12.122-5.427,12.122-12.122V284.285&#10;&#9;&#9;&#9;C150.943,277.59,145.516,272.163,138.821,272.163z"/>
		<path style="fill:#D8ECFE;" d="M315.6,272.163h-28.285c6.695,0,12.122,5.427,12.122,12.122v208.094&#10;&#9;&#9;&#9;c0,6.695-5.427,12.122-12.122,12.122H315.6c6.695,0,12.122-5.427,12.122-12.122V284.285&#10;&#9;&#9;&#9;C327.722,277.59,322.294,272.163,315.6,272.163z"/>
		<path style="fill:#D8ECFE;" d="M492.378,272.163h-28.285c6.695,0,12.122,5.427,12.122,12.122v208.094&#10;&#9;&#9;&#9;c0,6.695-5.427,12.122-12.122,12.122h28.285c6.695,0,12.122-5.427,12.122-12.122V284.285&#10;&#9;&#9;&#9;C504.5,277.59,499.073,272.163,492.378,272.163z"/>
		<path style="fill:#FD8087;" d="M112.757,98.108c-8.964-9.85-24.226-10.12-33.535-0.81c-9.31-9.31-24.571-9.039-33.535,0.811&#10;&#9;&#9;&#9;c-8.396,9.226-7.585,23.594,1.236,32.414l22.061,22.061c5.654,5.654,14.822,5.654,20.476,0l22.061-22.061&#10;&#9;&#9;&#9;C120.342,121.702,121.153,107.334,112.757,98.108z"/>
		<path style="fill:#FD8087;" d="M289.535,362.771c-8.964-9.85-24.226-10.12-33.535-0.81c-9.31-9.31-24.571-9.039-33.535,0.811&#10;&#9;&#9;&#9;c-8.396,9.226-7.585,23.594,1.236,32.414l22.061,22.061c5.654,5.654,14.822,5.654,20.476,0l22.061-22.061&#10;&#9;&#9;&#9;C297.12,386.365,297.931,371.996,289.535,362.771z"/>
		<g>
			<path style="fill:#8AC9FE;" d="M467.889,119.361l-30.825,30.825c-2.367,2.367-6.205,2.367-8.572,0l-30.825-30.825&#10;&#9;&#9;&#9;&#9;c-2.367-2.367-2.367-6.205,0-8.572l12.454-12.454c1.894-1.894,4.464-2.959,7.143-2.959h31.028c2.679,0,5.249,1.064,7.143,2.959&#10;&#9;&#9;&#9;&#9;l12.454,12.454C470.256,113.156,470.256,116.994,467.889,119.361z"/>
		</g>
		<g>
			<path style="fill:#8AC9FE;" d="M467.889,384.023l-30.825,30.825c-2.367,2.367-6.205,2.367-8.572,0l-30.825-30.825&#10;&#9;&#9;&#9;&#9;c-2.367-2.367-2.367-6.205,0-8.572l12.454-12.454c1.894-1.894,4.464-2.959,7.143-2.959h31.028c2.679,0,5.249,1.064,7.143,2.959&#10;&#9;&#9;&#9;&#9;l12.454,12.454C470.256,377.819,470.256,381.656,467.889,384.023z"/>
		</g>
	</g>
	<g>
		<path style="fill:none;stroke:#000000;stroke-width:15;stroke-linecap:round;stroke-linejoin:round;stroke-miterlimit:10;" d="&#10;&#9;&#9;&#9;M315.6,239.837H196.4c-6.695,0-12.122-5.427-12.122-12.122V19.622c0-6.695,5.427-12.122,12.122-12.122H315.6&#10;&#9;&#9;&#9;c6.695,0,12.122,5.427,12.122,12.122v208.094C327.722,234.41,322.294,239.837,315.6,239.837z"/>
		<path style="fill:none;stroke:#000000;stroke-width:15;stroke-linecap:round;stroke-linejoin:round;stroke-miterlimit:10;" d="&#10;&#9;&#9;&#9;M138.821,504.5H19.622c-6.695,0-12.122-5.427-12.122-12.122V284.285c0-6.695,5.427-12.122,12.122-12.122h119.199&#10;&#9;&#9;&#9;c6.695,0,12.122,5.427,12.122,12.122v208.094C150.943,499.073,145.516,504.5,138.821,504.5z"/>
		<path style="fill:none;stroke:#000000;stroke-width:15;stroke-linecap:round;stroke-linejoin:round;stroke-miterlimit:10;" d="&#10;&#9;&#9;&#9;M7.5,182.635v45.085c0,6.69,5.43,12.12,12.12,12.12h119.2c6.7,0,12.12-5.43,12.12-12.12V19.62c0-6.69-5.42-12.12-12.12-12.12&#10;&#9;&#9;&#9;H19.62C12.93,7.5,7.5,12.93,7.5,19.62v127.915"/>
		<path style="fill:none;stroke:#000000;stroke-width:15;stroke-linecap:round;stroke-linejoin:round;stroke-miterlimit:10;" d="&#10;&#9;&#9;&#9;M504.5,112.927V227.72c0,6.69-5.43,12.12-12.12,12.12h-119.2c-6.7,0-12.12-5.43-12.12-12.12V19.62c0-6.69,5.42-12.12,12.12-12.12&#10;&#9;&#9;&#9;h119.2c6.69,0,12.12,5.43,12.12,12.12v58.207"/>
		<path style="fill:none;stroke:#000000;stroke-width:15;stroke-linecap:round;stroke-linejoin:round;stroke-miterlimit:10;" d="&#10;&#9;&#9;&#9;M184.28,395.14v97.24c0,6.69,5.43,12.12,12.12,12.12h119.2c6.69,0,12.12-5.43,12.12-12.12v-208.1c0-6.69-5.43-12.12-12.12-12.12&#10;&#9;&#9;&#9;H196.4c-6.69,0-12.12,5.43-12.12,12.12v75.76"/>
		<path style="fill:none;stroke:#000000;stroke-width:15;stroke-linecap:round;stroke-linejoin:round;stroke-miterlimit:10;" d="&#10;&#9;&#9;&#9;M492.378,504.5H373.179c-6.695,0-12.122-5.427-12.122-12.122V284.285c0-6.695,5.427-12.122,12.122-12.122h119.199&#10;&#9;&#9;&#9;c6.695,0,12.122,5.427,12.122,12.122v208.094C504.5,499.073,499.073,504.5,492.378,504.5z"/>
		<path style="fill:none;stroke:#000000;stroke-width:15;stroke-linecap:round;stroke-linejoin:round;stroke-miterlimit:10;" d="&#10;&#9;&#9;&#9;M112.757,98.108c-8.964-9.85-24.226-10.12-33.535-0.81c-9.31-9.31-24.571-9.039-33.535,0.811&#10;&#9;&#9;&#9;c-8.396,9.226-7.585,23.594,1.236,32.414l22.061,22.061c5.654,5.654,14.822,5.654,20.476,0l22.061-22.061&#10;&#9;&#9;&#9;C120.342,121.702,121.153,107.334,112.757,98.108z"/>
		<path style="fill:none;stroke:#000000;stroke-width:15;stroke-linecap:round;stroke-linejoin:round;stroke-miterlimit:10;" d="&#10;&#9;&#9;&#9;M289.535,362.771c-8.964-9.85-24.226-10.12-33.535-0.81c-9.31-9.31-24.571-9.039-33.535,0.811&#10;&#9;&#9;&#9;c-8.396,9.226-7.585,23.594,1.236,32.414l22.061,22.061c5.654,5.654,14.822,5.654,20.476,0l22.061-22.061&#10;&#9;&#9;&#9;C297.12,386.365,297.931,371.996,289.535,362.771z"/>
		<path style="fill:none;stroke:#000000;stroke-width:15;stroke-linecap:round;stroke-linejoin:round;stroke-miterlimit:10;" d="&#10;&#9;&#9;&#9;M467.889,119.361l-30.825,30.825c-2.367,2.367-6.205,2.367-8.572,0l-30.825-30.825c-2.367-2.367-2.367-6.205,0-8.572&#10;&#9;&#9;&#9;l12.454-12.454c1.894-1.894,4.464-2.959,7.143-2.959h31.028c2.679,0,5.249,1.064,7.143,2.959l12.454,12.454&#10;&#9;&#9;&#9;C470.256,113.156,470.256,116.994,467.889,119.361z"/>
		<path style="fill:none;stroke:#000000;stroke-width:15;stroke-linecap:round;stroke-linejoin:round;stroke-miterlimit:10;" d="&#10;&#9;&#9;&#9;M467.889,384.023l-30.825,30.825c-2.367,2.367-6.205,2.367-8.572,0l-30.825-30.825c-2.367-2.367-2.367-6.205,0-8.572&#10;&#9;&#9;&#9;l12.454-12.454c1.894-1.894,4.464-2.959,7.143-2.959h31.028c2.679,0,5.249,1.064,7.143,2.959l12.454,12.454&#10;&#9;&#9;&#9;C470.256,377.819,470.256,381.656,467.889,384.023z"/>
		<g>
			<g>
				<path style="fill:none;stroke:#000000;stroke-width:15;stroke-linecap:round;stroke-linejoin:round;stroke-miterlimit:10;" d="&#10;&#9;&#9;&#9;&#9;&#9;M231.756,95.97c1.676-12.007,12.103-21.211,24.629-20.959c12.671,0.255,23.168,10.404,23.825,23.06&#10;&#9;&#9;&#9;&#9;&#9;c0.728,14.026-10.444,25.657-24.328,25.657v17.958"/>
			</g>
			
				<line style="fill:none;stroke:#000000;stroke-width:15;stroke-linecap:round;stroke-linejoin:round;stroke-miterlimit:10;" x1="256" y1="172.331" x2="256" y2="172.331"/>
		</g>
		<g>
			<g>
				<path style="fill:none;stroke:#000000;stroke-width:15;stroke-linecap:round;stroke-linejoin:round;stroke-miterlimit:10;" d="&#10;&#9;&#9;&#9;&#9;&#9;M54.978,360.633c1.676-12.007,12.103-21.211,24.629-20.958c12.671,0.255,23.168,10.404,23.825,23.06&#10;&#9;&#9;&#9;&#9;&#9;c0.728,14.026-10.444,25.657-24.328,25.657v17.958"/>
			</g>
			
				<line style="fill:none;stroke:#000000;stroke-width:15;stroke-linecap:round;stroke-linejoin:round;stroke-miterlimit:10;" x1="79.222" y1="436.993" x2="79.222" y2="436.993"/>
		</g>
	</g>
</g>
<g>
</g>
<g>
</g>
<g>
</g>
<g>
</g>
<g>
</g>
<g>
</g>
<g>
</g>
<g>
</g>
<g>
</g>
<g>
</g>
<g>
</g>
<g>
</g>
<g>
</g>
<g>
</g>
<g>
</g>
</svg>