<?xml version="1.0" encoding="UTF-8" standalone="no"?>
<!-- Created with Inkscape (http://www.inkscape.org/) -->

<svg
   version="1.1"
   id="svg10896"
   xml:space="preserve"
   width="682.66669"
   height="682.66669"
   viewBox="0 0 682.66669 682.66669"
   xmlns="http://www.w3.org/2000/svg"
   xmlns:svg="http://www.w3.org/2000/svg"><defs
     id="defs10900"><clipPath
       clipPathUnits="userSpaceOnUse"
       id="clipPath10910"><path
         d="M 0,512 H 512 V 0 H 0 Z"
         id="path10908" /></clipPath></defs><g
     id="g10902"
     transform="matrix(1.3333333,0,0,-1.3333333,0,682.66667)"><g
       id="g10904"><g
         id="g10906"
         clip-path="url(#clipPath10910)"><g
           id="g10912"
           transform="translate(283.1127,495.3815)"><path
             d="m 0,0 c -120.925,-0.919 -217.973,-98.746 -217.972,-219.675 0,-0.647 0.003,-1.293 0.008,-1.939 0.144,-16.625 15.699,-28.755 31.85,-24.814 8.468,2.066 17.367,3.029 26.538,2.729 50.832,-1.663 92.301,-42.678 94.482,-93.491 0.85,-19.816 -4.197,-38.398 -13.531,-54.14 -8.506,-14.344 -1.74,-32.863 14.164,-37.881 19.153,-6.043 39.439,-9.533 60.46,-10.069 122.862,-3.135 223.829,93.894 225.371,216.786 C 222.915,-99.305 123.05,0.935 0,0"
             style="fill:#d7e6f0;fill-opacity:1;fill-rule:nonzero;stroke:none"
             id="path10914" /></g><g
           id="g10916"
           transform="translate(334.4619,334.6719)"><path
             d="m 0,0 c -5.891,8.864 -15.696,14.157 -26.229,14.157 -4.201,0 -8.329,-0.84 -12.265,-2.494 l -8.16,-3.429 C -54.406,4.977 -62.478,2.542 -70.738,0.969 L -86.535,-2.04 c -20.418,-3.888 -34.899,-20.698 -36.467,-40.477 -0.597,-7.54 -3.671,-14.67 -9.02,-20.019 l -3.642,-3.642 c -4.443,-4.443 -9.307,-8.451 -14.571,-11.881 -0.498,-0.324 -0.995,-0.65 -1.491,-0.976 -5.825,-3.831 -12.812,-5.365 -19.736,-4.557 -2.667,0.311 -5.366,0.514 -8.091,0.603 -6.477,0.212 -12.813,-0.219 -18.962,-1.211 45.015,-7.315 80.071,-45.673 82.071,-92.28 0.854,-19.888 -4.233,-38.534 -13.632,-54.311 -8.522,-14.304 -1.646,-32.686 14.231,-37.699 19.163,-6.05 39.461,-9.544 60.495,-10.081 7.228,-0.184 14.377,-0.009 21.438,0.485 v 0 c -17.497,1.231 -34.43,4.503 -50.557,9.594 -15.88,5.013 -22.751,23.405 -14.23,37.712 9.396,15.775 14.48,34.416 13.626,54.3 -0.34,7.938 -1.641,15.635 -3.786,22.982 -1.184,4.053 -0.555,8.411 1.754,11.947 0.692,1.059 1.38,2.123 2.062,3.191 0.556,0.871 1.203,1.682 1.933,2.413 l 17.341,17.341 c 2.803,2.803 6.606,4.376 10.57,4.374 h 0.058 0.004 c 21.57,0 40.156,15.391 44.195,36.599 l 3.008,15.797 c 1.574,8.264 4.011,16.34 7.271,24.095 l 3.425,8.148 C 6.861,-19.834 5.829,-8.771 0,0"
             style="fill:#a5c3dc;fill-opacity:1;fill-rule:nonzero;stroke:none"
             id="path10918" /></g><g
           id="g10920"
           transform="translate(300.5762,494.8276)"><path
             d="m 0,0 c -5.763,0.409 -11.586,0.599 -17.464,0.554 -120.925,-0.919 -217.972,-98.746 -217.972,-219.675 0,-0.647 0.003,-1.294 0.009,-1.94 0.144,-16.624 15.698,-28.754 31.85,-24.814 4.292,1.048 8.697,1.809 13.19,2.269 v 0 c -7.963,4.244 -13.583,12.586 -13.669,22.545 -0.006,0.646 -0.008,1.293 -0.008,1.94 C -204.065,-102.866 -114.37,-7.979 0.002,0 0.001,0 0.001,0 0,0"
             style="fill:#a5c3dc;fill-opacity:1;fill-rule:nonzero;stroke:none"
             id="path10922" /></g><g
           id="g10924"
           transform="translate(400.6107,462.4299)"><path
             d="m 0,0 c -34.069,21.172 -74.359,33.279 -117.498,32.952 -120.925,-0.919 -217.973,-98.746 -217.972,-219.675 0,-0.647 0.003,-1.294 0.008,-1.94 0.144,-16.625 15.699,-28.754 31.85,-24.814 8.468,2.066 17.367,3.03 26.538,2.73 10.783,-0.353 21.145,-2.477 30.799,-6.089"
             style="fill:none;stroke:#000000;stroke-width:15;stroke-linecap:round;stroke-linejoin:round;stroke-miterlimit:10;stroke-dasharray:none;stroke-opacity:1"
             id="path10926" /></g><g
           id="g10928"
           transform="translate(217.3148,141.3442)"><path
             d="m 0,0 c -1.725,-13.481 -6.193,-26.105 -12.828,-37.293 -8.506,-14.344 -1.739,-32.862 14.165,-37.88 19.153,-6.044 39.439,-9.534 60.46,-10.07 122.862,-3.135 223.828,93.894 225.37,216.786 0.824,65.593 -27.105,124.679 -71.975,165.451"
             style="fill:none;stroke:#000000;stroke-width:15;stroke-linecap:round;stroke-linejoin:round;stroke-miterlimit:10;stroke-dasharray:none;stroke-opacity:1"
             id="path10930" /></g><g
           id="g10932"
           transform="translate(292.1733,425.623)"><path
             d="m 0,0 c 3.019,-17.781 -8.948,-34.642 -26.728,-37.661 -17.781,-3.02 -34.643,8.947 -37.662,26.728 -3.019,17.781 8.948,34.642 26.729,37.661 C -19.881,29.747 -3.019,17.781 0,0"
             style="fill:#ef9348;fill-opacity:1;fill-rule:nonzero;stroke:none"
             id="path10934" /></g><g
           id="g10936"
           transform="translate(342.4779,129.3586)"><path
             d="m 0,0 c 3.019,-17.781 -8.948,-34.642 -26.728,-37.661 -17.781,-3.02 -34.643,8.947 -37.662,26.728 -3.019,17.781 8.948,34.642 26.729,37.661 C -19.881,29.747 -3.019,17.781 0,0"
             style="fill:#736572;fill-opacity:1;fill-rule:nonzero;stroke:none"
             id="path10938" /></g><g
           id="g10940"
           transform="translate(398.7213,375.6551)"><path
             d="m 0,0 c -10.438,-14.708 -30.823,-18.169 -45.53,-7.731 -14.708,10.438 -18.169,30.823 -7.731,45.53 10.438,14.708 30.822,18.169 45.53,7.731 C 6.977,35.092 10.438,14.708 0,0"
             style="fill:#ffd05b;fill-opacity:1;fill-rule:nonzero;stroke:none"
             id="path10942" /></g><g
           id="g10944"
           transform="translate(438.7295,264.9817)"><path
             d="m 0,0 c -17.781,-3.019 -34.642,8.948 -37.661,26.728 -3.02,17.781 8.947,34.643 26.728,37.662 C 6.848,67.409 23.709,55.442 26.728,37.661 29.747,19.881 17.781,3.019 0,0"
             style="fill:#8ceea1;fill-opacity:1;fill-rule:nonzero;stroke:none"
             id="path10946" /></g><g
           id="g10948"
           transform="translate(388.7617,158.4337)"><path
             d="M 0,0 C -14.708,10.438 -18.169,30.823 -7.731,45.53 2.707,60.238 23.092,63.699 37.799,53.261 52.507,42.823 55.968,22.439 45.53,7.731 35.092,-6.977 14.708,-10.438 0,0"
             style="fill:#7ad7ee;fill-opacity:1;fill-rule:nonzero;stroke:none"
             id="path10950" /></g><g
           id="g10952"
           transform="translate(143.7004,332.3535)"><path
             d="M 0,0 C -14.708,10.438 -18.169,30.823 -7.731,45.53 2.707,60.238 23.092,63.699 37.799,53.261 52.507,42.823 55.968,22.439 45.53,7.731 35.092,-6.977 14.708,-10.438 0,0"
             style="fill:#ff7e92;fill-opacity:1;fill-rule:nonzero;stroke:none"
             id="path10954" /></g><g
           id="g10956"
           transform="translate(246.0237,414.6899)"><path
             d="M 0,0 C -2.808,16.538 7.351,32.274 23.092,36.823 18.494,38.167 13.528,38.517 8.488,37.661 -9.292,34.642 -21.259,17.781 -18.24,0 c 3.019,-17.781 19.881,-29.748 37.661,-26.729 1.243,0.212 2.454,0.497 3.637,0.839 C 11.435,-22.494 2.163,-12.741 0,0"
             style="fill:#dd7f37;fill-opacity:1;fill-rule:nonzero;stroke:none"
             id="path10958" /></g><g
           id="g10960"
           transform="translate(296.3282,118.4255)"><path
             d="M 0,0 C -2.808,16.538 7.351,32.274 23.092,36.823 18.494,38.167 13.528,38.517 8.488,37.661 -9.292,34.642 -21.259,17.781 -18.24,0 c 3.019,-17.781 19.881,-29.747 37.661,-26.728 1.243,0.211 2.454,0.496 3.637,0.838 C 11.435,-22.494 2.163,-12.741 0,0"
             style="fill:#605560;fill-opacity:1;fill-rule:nonzero;stroke:none"
             id="path10962" /></g><g
           id="g10964"
           transform="translate(371.4309,367.9243)"><path
             d="M 0,0 C -14.708,10.438 -18.169,30.823 -7.731,45.53 -3.29,51.788 2.954,56.001 9.793,57.983 -3.193,61.766 -17.702,57.182 -25.971,45.53 -36.409,30.823 -32.948,10.438 -18.24,0 -9.79,-5.997 0.531,-7.397 9.766,-4.722 6.36,-3.729 3.056,-2.169 0,0"
             style="fill:#ffaa5a;fill-opacity:1;fill-rule:nonzero;stroke:none"
             id="path10966" /></g><g
           id="g10968"
           transform="translate(419.3081,291.71)"><path
             d="M 0,0 C -2.808,16.538 7.351,32.274 23.092,36.823 18.494,38.167 13.528,38.517 8.488,37.661 -9.292,34.642 -21.259,17.781 -18.24,0 c 3.019,-17.781 19.881,-29.747 37.661,-26.728 1.243,0.211 2.454,0.496 3.637,0.838 C 11.435,-22.494 2.163,-12.741 0,0"
             style="fill:#4ce1a1;fill-opacity:1;fill-rule:nonzero;stroke:none"
             id="path10970" /></g><g
           id="g10972"
           transform="translate(407.0017,158.4336)"><path
             d="M 0,0 C -14.708,10.438 -18.169,30.823 -7.731,45.531 -3.29,51.788 2.954,56.001 9.793,57.983 -3.193,61.766 -17.702,57.182 -25.971,45.531 -36.409,30.823 -32.948,10.438 -18.24,0 -9.79,-5.997 0.531,-7.397 9.766,-4.722 6.36,-3.729 3.056,-2.169 0,0"
             style="fill:#4bc3ef;fill-opacity:1;fill-rule:nonzero;stroke:none"
             id="path10974" /></g><g
           id="g10976"
           transform="translate(161.9404,332.3535)"><path
             d="M 0,0 C -14.708,10.438 -18.169,30.823 -7.731,45.53 -3.29,51.788 2.954,56.001 9.793,57.983 -3.193,61.766 -17.702,57.182 -25.971,45.53 -36.409,30.823 -32.948,10.438 -18.24,0 -9.79,-5.997 0.531,-7.397 9.766,-4.722 6.36,-3.729 3.056,-2.169 0,0"
             style="fill:#ff5f7a;fill-opacity:1;fill-rule:nonzero;stroke:none"
             id="path10978" /></g><g
           id="g10980"
           transform="translate(292.1733,425.623)"><path
             d="m 0,0 c 3.019,-17.781 -8.948,-34.642 -26.728,-37.661 -17.781,-3.02 -34.643,8.947 -37.662,26.728 -3.019,17.781 8.948,34.642 26.729,37.661 C -19.881,29.747 -3.019,17.781 0,0 Z"
             style="fill:none;stroke:#000000;stroke-width:15;stroke-linecap:round;stroke-linejoin:round;stroke-miterlimit:10;stroke-dasharray:none;stroke-opacity:1"
             id="path10982" /></g><g
           id="g10984"
           transform="translate(342.4779,129.3586)"><path
             d="m 0,0 c 3.019,-17.781 -8.948,-34.642 -26.728,-37.661 -17.781,-3.02 -34.643,8.947 -37.662,26.728 -3.019,17.781 8.948,34.642 26.729,37.661 C -19.881,29.747 -3.019,17.781 0,0 Z"
             style="fill:none;stroke:#000000;stroke-width:15;stroke-linecap:round;stroke-linejoin:round;stroke-miterlimit:10;stroke-dasharray:none;stroke-opacity:1"
             id="path10986" /></g><g
           id="g10988"
           transform="translate(398.7213,375.6551)"><path
             d="m 0,0 c -10.438,-14.708 -30.823,-18.169 -45.53,-7.731 -14.708,10.438 -18.169,30.823 -7.731,45.53 10.438,14.708 30.822,18.169 45.53,7.731 C 6.977,35.092 10.438,14.708 0,0 Z"
             style="fill:none;stroke:#000000;stroke-width:15;stroke-linecap:round;stroke-linejoin:round;stroke-miterlimit:10;stroke-dasharray:none;stroke-opacity:1"
             id="path10990" /></g><g
           id="g10992"
           transform="translate(438.7295,264.9817)"><path
             d="m 0,0 c -17.781,-3.019 -34.642,8.948 -37.661,26.728 -3.02,17.781 8.947,34.643 26.728,37.662 C 6.848,67.409 23.709,55.442 26.728,37.661 29.747,19.881 17.781,3.019 0,0 Z"
             style="fill:none;stroke:#000000;stroke-width:15;stroke-linecap:round;stroke-linejoin:round;stroke-miterlimit:10;stroke-dasharray:none;stroke-opacity:1"
             id="path10994" /></g><g
           id="g10996"
           transform="translate(388.7617,158.4337)"><path
             d="M 0,0 C -14.708,10.438 -18.169,30.823 -7.731,45.53 2.707,60.238 23.092,63.699 37.799,53.261 52.507,42.823 55.968,22.439 45.53,7.731 35.092,-6.977 14.708,-10.438 0,0 Z"
             style="fill:none;stroke:#000000;stroke-width:15;stroke-linecap:round;stroke-linejoin:round;stroke-miterlimit:10;stroke-dasharray:none;stroke-opacity:1"
             id="path10998" /></g><g
           id="g11000"
           transform="translate(143.7004,332.3535)"><path
             d="M 0,0 C -14.708,10.438 -18.169,30.823 -7.731,45.53 2.707,60.238 23.092,63.699 37.799,53.261 52.507,42.823 55.968,22.439 45.53,7.731 35.092,-6.977 14.708,-10.438 0,0 Z"
             style="fill:none;stroke:#000000;stroke-width:15;stroke-linecap:round;stroke-linejoin:round;stroke-miterlimit:10;stroke-dasharray:none;stroke-opacity:1"
             id="path11002" /></g><g
           id="g11004"
           transform="translate(265.5163,242.3285)"><path
             d="m 0,0 9.826,-1.572 c 13.361,-2.138 26,6.733 28.531,20.025 l 3.009,15.797 c 1.834,9.633 4.675,19.048 8.474,28.088 l 3.428,8.16 c 3.995,9.506 -5.564,19.065 -15.07,15.07 L 30.039,82.139 C 20.998,78.34 11.583,75.5 1.95,73.665 L -13.847,70.657 C -27.138,68.126 -36.009,55.486 -33.872,42.126 L -32.3,32.3 Z"
             style="fill:#ff7e92;fill-opacity:1;fill-rule:nonzero;stroke:none"
             id="path11006" /></g><g
           id="g11008"
           transform="translate(236.4588,213.2702)"><path
             d="m 0,0 v 0 c -25.258,-41.28 -57.685,-77.718 -95.754,-107.598 l -109.481,-85.93 c -5.838,-4.583 -14.179,-4.082 -19.428,1.166 v 0 c -5.248,5.248 -5.748,13.589 -1.166,19.428 l 85.931,109.481 c 29.88,38.068 66.317,70.495 107.597,95.754 v 0 z"
             style="fill:#ffd05b;fill-opacity:1;fill-rule:nonzero;stroke:none"
             id="path11010" /></g><g
           id="g11012"
           transform="translate(233.2165,274.6283)"><path
             d="M 0,0 -29.058,-29.058 3.819,-61.936 32.877,-32.877 Z"
             style="fill:#736572;fill-opacity:1;fill-rule:nonzero;stroke:none"
             id="path11014" /></g><g
           id="g11016"
           transform="translate(263.9338,300.7209)"><path
             d="m 0,0 15.797,3.009 c 9.633,1.834 19.048,4.674 28.088,8.474 l 8.16,3.428 c 1.244,0.523 2.488,0.808 3.703,0.898 0.592,8.071 -7.705,14.839 -15.967,11.367 l -8.16,-3.429 C 22.58,19.948 13.166,17.108 3.532,15.273 l -15.796,-3.009 c -13.292,-2.531 -22.163,-15.17 -20.025,-28.53 l 1.572,-9.827 12.264,-12.264 -1.572,9.826 C -22.162,-15.17 -13.291,-2.531 0,0"
             style="fill:#ff5f7a;fill-opacity:1;fill-rule:nonzero;stroke:none"
             id="path11018" /></g><g
           id="g11020"
           transform="translate(204.1581,245.5708)"><path
             d="m 0,0 c -41.28,-25.258 -77.718,-57.686 -107.598,-95.754 l -85.93,-109.481 c -4.583,-5.838 -4.082,-14.18 1.166,-19.428 2.282,-2.282 5.149,-3.664 8.141,-4.123 -0.597,3.889 0.367,7.987 2.957,11.287 l 85.931,109.48 c 29.88,38.069 66.318,70.496 107.598,95.755 z"
             style="fill:#ffaa5a;fill-opacity:1;fill-rule:nonzero;stroke:none"
             id="path11022" /></g><g
           id="g11024"
           transform="translate(214.4949,235.2334)"><path
             d="M 0,0 1.928,-1.928 30.986,27.13 29.058,29.058 18.722,39.395 -10.336,10.337 Z"
             style="fill:#605560;fill-opacity:1;fill-rule:nonzero;stroke:none"
             id="path11026" /></g><g
           id="g11028"
           transform="translate(265.5163,242.3285)"><path
             d="m 0,0 9.826,-1.572 c 13.361,-2.138 26,6.733 28.531,20.025 l 3.009,15.797 c 1.834,9.633 4.675,19.048 8.474,28.088 l 3.428,8.16 c 3.995,9.506 -5.564,19.065 -15.07,15.07 L 30.039,82.139 C 20.998,78.34 11.583,75.5 1.95,73.665 L -13.847,70.657 C -27.138,68.126 -36.009,55.486 -33.872,42.126 L -32.3,32.3 Z"
             style="fill:none;stroke:#000000;stroke-width:15;stroke-linecap:round;stroke-linejoin:round;stroke-miterlimit:10;stroke-dasharray:none;stroke-opacity:1"
             id="path11030" /></g><g
           id="g11032"
           transform="translate(94.8895,69.7124)"><path
             d="m 0,0 -63.666,-49.971 c -5.838,-4.582 -14.179,-4.081 -19.427,1.167 v 0 c -5.248,5.248 -5.749,13.589 -1.167,19.427 L 1.671,80.104 c 29.88,38.069 66.318,70.496 107.598,95.754 v 0 l 32.3,-32.3 v 0 C 116.311,102.278 83.884,65.84 45.815,35.96 L 27.416,21.519"
             style="fill:none;stroke:#000000;stroke-width:15;stroke-linecap:round;stroke-linejoin:round;stroke-miterlimit:10;stroke-dasharray:none;stroke-opacity:1"
             id="path11034" /></g><g
           id="g11036"
           transform="translate(233.2165,274.6283)"><path
             d="M 0,0 -29.058,-29.058 3.819,-61.936 32.877,-32.877 Z"
             style="fill:none;stroke:#000000;stroke-width:15;stroke-linecap:round;stroke-linejoin:round;stroke-miterlimit:10;stroke-dasharray:none;stroke-opacity:1"
             id="path11038" /></g></g></g></g></svg>
