<svg id="Outline" height="512" viewBox="0 0 32 32" width="512" xmlns="http://www.w3.org/2000/svg"><g><path d="m5.71633 27.28195c.10678.00077.21385-.01535.31639-.04953l8.48535-2.82813c.14697-.04932.28076-.13184.39063-.2417l15.62694-15.62695c1.94922-1.94971 1.94922-5.12158 0-7.07129-1.94922-1.94922-5.12207-1.94922-7.07129 0l-15.62695 15.62696c-.10986.10986-.19238.24365-.2417.39063 0 0-2.82415 8.47344-2.82812 8.48534-.2101.63036.28985 1.30992.94875 1.31467zm23.40525-24.40353c1.16943 1.16992 1.16943 3.07324 0 4.24316l-.51489.51489-4.24316-4.24316.51489-.51489c1.16943-1.16944 3.07275-1.16944 4.24316 0zm-19.70312 15.45996 13.531-13.53101 4.24316 4.24316-13.531 13.53101-6.36426 2.12109z"/><path d="m19 30h-18c-.55225 0-1 .44775-1 1s.44775 1 1 1h18c.55225 0 1-.44775 1-1s-.44775-1-1-1z"/><path d="m31 30h-8c-.55225 0-1 .44775-1 1s.44775 1 1 1h8c.55225 0 1-.44775 1-1s-.44775-1-1-1z"/></g></svg>