<?xml version="1.0" encoding="UTF-8"?>
<svg xmlns="http://www.w3.org/2000/svg" xmlns:xlink="http://www.w3.org/1999/xlink" version="1.1" id="Capa_1" x="0px" y="0px" viewBox="0 0 512 512" style="enable-background:new 0 0 512 512;" xml:space="preserve" width="512" height="512">
<g>
	<g>
		<path style="fill:#6C7FD8;" d="M420.038,7.5h-189.39v226.713h86.22v25.354c0,14.002,11.351,25.354,25.354,25.354&#10;&#9;&#9;&#9;s25.354-11.351,25.354-25.354v-25.354h52.92c18.391,0,33.3-14.909,33.3-33.3V41.257C453.796,22.614,438.682,7.5,420.038,7.5z"/>
		<g>
			<path style="fill:#4F66D0;" d="M420.038,7.5h-30.126c18.644,0,33.757,15.114,33.757,33.757v159.656&#10;&#9;&#9;&#9;&#9;c0,18.391-14.909,33.3-33.3,33.3h30.126c18.391,0,33.3-14.909,33.3-33.3V41.257C453.796,22.614,438.682,7.5,420.038,7.5z"/>
			<path style="fill:#4F66D0;" d="M342.449,259.567c0,9.43-5.152,17.651-12.791,22.019c3.858,2.206,8.348,3.435,13.136,3.329&#10;&#9;&#9;&#9;&#9;c13.869-0.307,24.781-12.022,24.781-25.894v-24.807h-14.801c-5.702,0-10.325,4.623-10.325,10.325V259.567z"/>
		</g>
		<path style="fill:#8AC9FE;" d="M256.001,95.503h-25.354V7.5H41.257C22.619,7.5,7.5,22.619,7.5,41.257v192.956l69.271,13.658&#10;&#9;&#9;&#9;l153.877-13.658V146.21h25.354c14.003,0,25.354-11.351,25.354-25.354S270.004,95.503,256.001,95.503z"/>
		<g>
			<path style="fill:#60B7FF;" d="M200.521,234.213h30.126V146.21h-19.801c-5.702,0-10.325,4.623-10.325,10.325V234.213z"/>
			<path style="fill:#60B7FF;" d="M230.648,95.503V7.5h-30.126v77.678c0,5.702,4.623,10.325,10.325,10.325H230.648z"/>
			<path style="fill:#60B7FF;" d="M256.001,95.503h-25.126c14.002,0,25.354,11.351,25.354,25.354s-11.351,25.354-25.354,25.354&#10;&#9;&#9;&#9;&#9;h25.126c14.002,0,25.354-11.351,25.354-25.354S270.004,95.503,256.001,95.503z"/>
		</g>
		<path style="fill:#FE646F;" d="M187.371,319.258c-16.13,15.038-3.742,44.116,18.504,43.276h16.718&#10;&#9;&#9;&#9;c4.449,0,8.055,3.606,8.055,8.055v49.906c0,18.391-14.909,33.3-33.3,33.3H41.257c-18.644,0-33.757-15.114-33.757-33.757V234.213&#10;&#9;&#9;&#9;h86.222l0-24.755c0-13.75,10.7-25.457,24.442-25.934c14.423-0.501,26.263,11.032,26.263,25.331v25.358h86.222v69.562&#10;&#9;&#9;&#9;c0,4.449-3.606,8.055-8.055,8.055H205.29C198.285,311.83,191.954,314.664,187.371,319.258z"/>
		<g>
			<path style="fill:#FD4755;" d="M119.3,208.855v15.033c0,5.702,4.623,10.325,10.325,10.325h14.801v-25.358&#10;&#9;&#9;&#9;&#9;c0-14.299-11.84-25.832-26.263-25.331c-4.221,0.147-8.152,1.356-11.577,3.355C114.186,191.257,119.3,199.458,119.3,208.855z"/>
			<path style="fill:#FD4755;" d="M205.29,311.83h17.303c4.449,0,8.055-3.606,8.055-8.055v-69.562h-30.126v69.562&#10;&#9;&#9;&#9;&#9;c0,4.449-3.606,8.055-8.055,8.055h-12.303c-7.005,0-13.336,2.834-17.918,7.428c-16.13,15.038-3.743,44.116,18.504,43.276h11.718&#10;&#9;&#9;&#9;&#9;c4.449,0,8.055,3.606,8.055,8.055v49.906c0,18.391-14.909,33.3-33.3,33.3h30.126c18.391,0,33.3-14.909,33.3-33.3v-49.906&#10;&#9;&#9;&#9;&#9;c0-4.449-3.606-8.055-8.055-8.055h-16.718c-22.246,0.84-34.634-28.239-18.504-43.276&#10;&#9;&#9;&#9;&#9;C191.954,314.664,198.285,311.83,205.29,311.83z"/>
		</g>
		<path style="fill:#80D261;" d="M471.2,284.918h-44.866c-4.449,0-8.055,3.606-8.055,8.055v16.738&#10;&#9;&#9;&#9;c-0.419,33.694-49.934,34.245-50.704,0.565v-17.303c0-4.449-3.606-8.055-8.055-8.055h-44.866c-18.391,0-33.3,14.909-33.3,33.3&#10;&#9;&#9;&#9;v44.314h-25.351c-14.003,0-25.354,11.351-25.354,25.354l0,0c0,14.003,11.351,25.354,25.354,25.354h25.351v57.96&#10;&#9;&#9;&#9;c0,18.391,14.909,33.3,33.3,33.3h156.09c18.644,0,33.757-15.114,33.757-33.757V318.218&#10;&#9;&#9;&#9;C504.5,299.831,489.598,284.918,471.2,284.918z"/>
		<g>
			<path style="fill:#68CA44;" d="M342.448,292.973v17.303c0.54,23.593,22.543,30.385,35.82,20.758&#10;&#9;&#9;&#9;&#9;c-6.092-4.026-10.468-10.933-10.693-20.758v-17.303c0-4.449-3.606-8.055-8.055-8.055h-25.126&#10;&#9;&#9;&#9;&#9;C338.841,284.918,342.448,288.524,342.448,292.973z"/>
			<path style="fill:#68CA44;" d="M471.2,284.918h-30.126c18.399,0,33.3,14.913,33.3,33.3v152.525&#10;&#9;&#9;&#9;&#9;c0,18.644-15.114,33.757-33.757,33.757h30.126c18.644,0,33.757-15.114,33.757-33.757V318.218&#10;&#9;&#9;&#9;&#9;C504.5,299.831,489.598,284.918,471.2,284.918z"/>
		</g>
		<path style="fill:#FFD15B;" d="M405.285,377.78L405.285,377.78c1.891,3.832,5.547,6.488,9.776,7.103h0&#10;&#9;&#9;&#9;c10.649,1.547,14.902,14.634,7.196,22.146v0c-3.06,2.983-4.456,7.28-3.734,11.492v0c1.819,10.606-9.313,18.695-18.838,13.687h0&#10;&#9;&#9;&#9;c-3.782-1.989-8.301-1.989-12.083,0h0c-9.525,5.008-20.658-3.081-18.838-13.687v0c0.722-4.212-0.674-8.509-3.734-11.492l0,0&#10;&#9;&#9;&#9;c-7.706-7.511-3.454-20.598,7.196-22.146h0c4.229-0.614,7.885-3.271,9.776-7.103l0,0&#10;&#9;&#9;&#9;C386.762,368.13,400.523,368.13,405.285,377.78z"/>
		<path style="fill:#FFC344;" d="M415.061,384.882c-4.229-0.615-7.885-3.271-9.776-7.102v0c-4.305-8.723-15.942-9.533-21.659-2.485&#10;&#9;&#9;&#9;c0.607,0.749,1.169,1.558,1.626,2.485v0c1.891,3.832,5.547,6.488,9.776,7.102h0c10.649,1.547,14.901,14.634,7.196,22.146&#10;&#9;&#9;&#9;c-3.06,2.983-4.456,7.28-3.734,11.492l0,0c0.724,4.223-0.558,8.746-2.961,12.349c1.432,0.21,2.839,0.646,4.155,1.338l0,0&#10;&#9;&#9;&#9;c9.525,5.008,20.657-3.081,18.838-13.687l0,0c-0.722-4.212,0.674-8.509,3.734-11.492&#10;&#9;&#9;&#9;C429.963,399.517,425.711,386.43,415.061,384.882z"/>
	</g>
	<g>
		<path style="fill:none;stroke:#000000;stroke-width:15;stroke-linecap:round;stroke-linejoin:round;stroke-miterlimit:10;" d="&#10;&#9;&#9;&#9;M230.648,234.213V146.21h25.354c14.003,0,25.354-11.351,25.354-25.354s-11.351-25.354-25.354-25.354h-25.354V7.5H41.257&#10;&#9;&#9;&#9;C22.619,7.5,7.5,22.619,7.5,41.257v192.956"/>
		<path style="fill:none;stroke:#000000;stroke-width:15;stroke-linecap:round;stroke-linejoin:round;stroke-miterlimit:10;" d="&#10;&#9;&#9;&#9;M93.722,234.213l0-24.755c0-13.75,10.7-25.457,24.442-25.934c14.423-0.501,26.263,11.032,26.263,25.331v25.358h86.222v69.562&#10;&#9;&#9;&#9;c0,4.449-3.606,8.055-8.055,8.055H205.29c-7.005,0-13.336,2.834-17.919,7.428c-16.13,15.038-3.742,44.116,18.504,43.276h16.718&#10;&#9;&#9;&#9;c4.449,0,8.055,3.606,8.055,8.055v49.906c0,18.391-14.909,33.3-33.3,33.3H41.257c-18.644,0-33.757-15.114-33.757-33.757V234.213&#10;&#9;&#9;&#9;h51.109"/>
		<path style="fill:none;stroke:#000000;stroke-width:15;stroke-linecap:round;stroke-linejoin:round;stroke-miterlimit:10;" d="&#10;&#9;&#9;&#9;M453.796,58.704V41.257c0-18.644-15.114-33.757-33.757-33.757h-189.39"/>
		<path style="fill:none;stroke:#000000;stroke-width:15;stroke-linecap:round;stroke-linejoin:round;stroke-miterlimit:10;" d="&#10;&#9;&#9;&#9;M230.648,234.213h86.22v25.354c0,14.002,11.351,25.354,25.354,25.354s25.354-11.351,25.354-25.354v-25.354h52.92&#10;&#9;&#9;&#9;c18.391,0,33.3-14.909,33.3-33.3V93.749"/>
		<path style="fill:none;stroke:#000000;stroke-width:15;stroke-linecap:round;stroke-linejoin:round;stroke-miterlimit:10;" d="&#10;&#9;&#9;&#9;M471.2,284.918h-44.866c-4.449,0-8.055,3.606-8.055,8.055v16.738c-0.419,33.694-49.934,34.245-50.704,0.565v-17.303&#10;&#9;&#9;&#9;c0-4.449-3.606-8.055-8.055-8.055h-44.866c-18.391,0-33.3,14.909-33.3,33.3v44.314h-25.351c-14.003,0-25.354,11.351-25.354,25.354&#10;&#9;&#9;&#9;l0,0c0,14.003,11.351,25.354,25.354,25.354h25.351v57.96c0,18.391,14.909,33.3,33.3,33.3h156.09&#10;&#9;&#9;&#9;c18.644,0,33.757-15.114,33.757-33.757V318.218C504.5,299.831,489.598,284.918,471.2,284.918z"/>
		<path style="fill:none;stroke:#000000;stroke-width:15;stroke-linecap:round;stroke-linejoin:round;stroke-miterlimit:10;" d="&#10;&#9;&#9;&#9;M405.285,377.78L405.285,377.78c1.891,3.832,5.547,6.488,9.776,7.103h0c10.649,1.547,14.902,14.634,7.196,22.146v0&#10;&#9;&#9;&#9;c-3.06,2.983-4.456,7.28-3.734,11.492v0c1.819,10.606-9.313,18.695-18.838,13.687h0c-3.782-1.989-8.301-1.989-12.083,0h0&#10;&#9;&#9;&#9;c-9.525,5.008-20.658-3.081-18.838-13.687v0c0.722-4.212-0.674-8.509-3.734-11.492l0,0c-7.706-7.511-3.454-20.598,7.196-22.146h0&#10;&#9;&#9;&#9;c4.229-0.614,7.885-3.271,9.776-7.103l0,0C386.762,368.13,400.523,368.13,405.285,377.78z"/>
	</g>
</g>















</svg>
