<svg id="Layer_1" enable-background="new 0 0 512 512" height="512" viewBox="0 0 512 512" width="512" xmlns="http://www.w3.org/2000/svg"><g><path d="m466 0h-82c-8.837 0-16 7.164-16 16s7.163 16 16 16h82c7.72 0 14 6.28 14 14v82c0 8.836 7.163 16 16 16s16-7.164 16-16v-82c0-25.364-20.636-46-46-46z"/><path d="m16 144c8.837 0 16-7.164 16-16v-82c0-7.72 6.28-14 14-14h82c8.837 0 16-7.164 16-16s-7.163-16-16-16h-82c-25.364 0-46 20.636-46 46v82c0 8.836 7.163 16 16 16z"/><path d="m128 480h-82c-7.72 0-14-6.28-14-14v-82c0-8.836-7.163-16-16-16s-16 7.164-16 16v82c0 25.364 20.636 46 46 46h82c8.837 0 16-7.164 16-16s-7.163-16-16-16z"/><path d="m496 368c-8.837 0-16 7.164-16 16v82c0 7.72-6.28 14-14 14h-82c-8.837 0-16 7.164-16 16s7.163 16 16 16h82c25.364 0 46-20.636 46-46v-82c0-8.836-7.163-16-16-16z"/><path d="m422 448c14.337 0 26-11.664 26-26v-44c0-14.336-11.663-26-26-26h-38v-54c0-14.336-11.663-26-26-26h-60c-14.337 0-26 11.664-26 26v60c0 14.336 11.663 26 26 26h54v38c0 14.336 11.663 26 26 26zm-11-32h-22c-2.761 0-5-2.239-5-5v-22c0-2.761 2.239-5 5-5h22c2.761 0 5 2.239 5 5v22c0 2.761-2.239 5-5 5z"/><path d="m194 64h-84c-25.364 0-46 20.636-46 46v84c0 25.364 20.636 46 46 46h84c25.364 0 46-20.636 46-46v-84c0-25.364-20.636-46-46-46zm-18 96c0 8.836-7.163 16-16 16h-16c-8.837 0-16-7.164-16-16v-16c0-8.836 7.163-16 16-16h16c8.837 0 16 7.164 16 16z"/><path d="m402 64h-84c-25.364 0-46 20.636-46 46v84c0 25.364 20.636 46 46 46h84c25.364 0 46-20.636 46-46v-84c0-25.364-20.636-46-46-46zm-18 96c0 8.836-7.163 16-16 16h-16c-8.837 0-16-7.164-16-16v-16c0-8.836 7.163-16 16-16h16c8.837 0 16 7.164 16 16z"/><path d="m194 272h-84c-25.364 0-46 20.636-46 46v84c0 25.364 20.636 46 46 46h84c25.364 0 46-20.636 46-46v-84c0-25.364-20.636-46-46-46zm-18 96c0 8.836-7.163 16-16 16h-16c-8.837 0-16-7.164-16-16v-16c0-8.836 7.163-16 16-16h16c8.837 0 16 7.164 16 16z"/></g></svg>