<svg id="Capa_1" enable-background="new 0 0 512 512" height="512" viewBox="0 0 512 512" width="512" xmlns="http://www.w3.org/2000/svg"><g><circle cx="315.019" cy="224.881" fill="#a5ed83" r="184.554"/><path d="m179.977 224.881c0-93.53 69.579-170.799 159.798-182.896-8.099-1.086-16.36-1.658-24.756-1.658-101.926 0-184.554 82.627-184.554 184.554 0 101.926 82.627 184.554 184.554 184.554 8.396 0 16.657-.572 24.756-1.658-90.219-12.097-159.798-89.366-159.798-182.896z" fill="#95dd6f"/><g><path d="m332.491 264.986-3.017 179.328 15.379 26.639 64.535-72.777 95.294-19.5-15.38-26.638z" fill="#50c5ff"/></g><path d="m381.544 292.217-49.053-27.231-3.017 179.329 15.379 26.638 34.336-38.721z" fill="#46b3f7"/><circle cx="130.465" cy="224.881" fill="#ffe487" r="123.036"/><path d="m56.941 224.881c0-59.471 42.195-109.087 98.28-120.544-7.997-1.634-16.276-2.492-24.756-2.492-67.951 0-123.036 55.085-123.036 123.036s55.085 123.036 123.036 123.036c8.48 0 16.759-.858 24.756-2.492-56.085-11.458-98.28-61.073-98.28-120.544z" fill="#ffcf57"/><g><path d="m511.116 374.963-15.379-26.638c-.673-1.165-1.65-2.126-2.827-2.78l-20.159-11.191c22.436-32.194 34.25-69.86 34.25-109.471 0-43.082-13.949-83.801-40.341-117.752-2.517-3.24-7.184-3.824-10.422-1.306-3.239 2.518-3.824 7.183-1.306 10.422 24.347 31.321 37.215 68.887 37.215 108.637 0 37.052-11.201 72.256-32.456 102.221l-123.594-68.61c-6.081-2.04-9.758.082-11.031 6.369l-2.307 136.974c-52.314 2.256-103.761-19.133-138.937-57.953 40.149-18.09 69.954-55.963 75.982-101.854.534-4.066-2.33-7.796-6.397-8.331-4.054-.527-7.796 2.33-8.331 6.397-7.519 57.235-56.792 100.397-114.613 100.397-63.747 0-115.61-51.863-115.61-115.61s51.863-115.61 115.61-115.61c57.821 0 107.094 43.161 114.613 100.396.535 4.067 4.276 6.917 8.331 6.397 4.067-.535 6.931-4.265 6.397-8.331-6.029-45.892-35.837-83.768-75.99-101.856 64.629-71.318 178.543-76.996 249.968-12.417 3.044 2.749 7.739 2.515 10.49-.528 2.75-3.043 2.514-7.739-.528-10.49-79.21-71.615-205.443-63.415-274.764 17.812-82.573-25.655-168.98 38.275-168.98 124.626 0 86.254 86.316 150.317 168.99 124.624 37.793 44.289 95.366 69.446 153.518 67.206l-.463 27.481c-.022 1.345.321 2.672.994 3.838l15.379 26.638c2.573 4.458 8.684 4.942 11.988 1.214l62.892-70.93 25.193-5.158c4.019-.823 6.61-4.747 5.787-8.765-.823-4.019-4.75-6.61-8.765-5.787l-27.618 5.654c-1.574.322-3.002 1.147-4.067 2.349l-57.698 65.071-9.197-15.932 2.777-164.898 144.193 80.045 9.197 15.932-25.88 5.293c-4.018.822-6.61 4.745-5.788 8.764.82 4.018 4.749 6.609 8.764 5.788l35.975-7.357c5.4-1.976 7.048-5.639 4.945-10.99z"/><path d="m53.568 217.455c-4.102 0-7.427 3.325-7.427 7.427s3.325 7.427 7.427 7.427h15.38c4.102 0 7.427-3.325 7.427-7.427s-3.325-7.427-7.427-7.427z"/><path d="m99.706 217.454c-4.102 0-7.427 3.325-7.427 7.427s3.325 7.427 7.427 7.427h15.38c4.102 0 7.427-3.325 7.427-7.427s-3.325-7.427-7.427-7.427z"/><path d="m145.844 217.454c-4.102 0-7.427 3.325-7.427 7.427s3.325 7.427 7.427 7.427h15.38c4.102 0 7.427-3.325 7.427-7.427s-3.325-7.427-7.427-7.427z"/><path d="m191.983 217.454c-4.101 0-7.427 3.325-7.427 7.427 0 4.101 3.325 7.427 7.427 7.427l15.38.001c4.101 0 7.427-3.325 7.427-7.427 0-4.101-3.325-7.427-7.427-7.427z"/><path d="m430.628 224.881c0 4.102 3.325 7.427 7.427 7.427h15.38c4.102 0 7.427-3.325 7.427-7.427s-3.325-7.427-7.427-7.427h-15.38c-4.102 0-7.427 3.324-7.427 7.427z"/><path d="m391.916 217.454c-4.102 0-7.427 3.325-7.427 7.427s3.325 7.427 7.427 7.427h15.38c4.102 0 7.427-3.325 7.427-7.427s-3.325-7.427-7.427-7.427z"/><path d="m345.778 217.454c-4.101 0-7.427 3.325-7.427 7.427 0 4.101 3.325 7.427 7.427 7.427l15.38.001c4.101 0 7.427-3.325 7.427-7.427 0-4.101-3.325-7.427-7.427-7.427z"/><path d="m299.639 217.454c-4.102 0-7.427 3.325-7.427 7.427s3.325 7.427 7.427 7.427h15.38c4.102 0 7.427-3.325 7.427-7.427s-3.325-7.427-7.427-7.427z"/></g></g></svg>