<svg id="Capa_1" enable-background="new 0 0 512 512" height="512" viewBox="0 0 512 512" width="512" xmlns="http://www.w3.org/2000/svg"><g><g><path d="m371.159 152.963h-343.456c-11.158 0-20.203 9.045-20.203 20.203v222.236c0 11.158 9.045 20.203 20.203 20.203h233.348l64.65 60.61v-60.61h45.457c11.158 0 20.203-9.045 20.203-20.203v-222.235c.001-11.158-9.045-20.204-20.202-20.204z" fill="#b3e59f"/></g><g><path d="m371.159 152.963h-71.979c7.344 32.999 28.766 60.748 57.61 76.607 6.406 3.522 10.329 10.31 10.329 17.621v148.211c0 11.158-9.045 20.203-20.203 20.203h24.244c11.158 0 20.203-9.045 20.203-20.203v-222.235c-.001-11.158-9.047-20.204-20.204-20.204z" fill="#95d6a4"/></g><g><g><circle cx="412.575" cy="127.709" fill="#ffe07d" r="91.925"/></g><g><path d="m466.684 53.397c11.073 15.181 17.612 33.88 17.612 54.109 0 50.769-41.156 91.925-91.925 91.925-20.229 0-38.928-6.539-54.109-17.612 16.717 22.919 43.773 37.815 74.312 37.815 50.769 0 91.925-41.156 91.925-91.925.001-30.539-14.896-57.595-37.815-74.312z" fill="#ffd064"/></g></g><g><path d="m95.595 236.378c-26.416 0-47.906 21.49-47.906 47.906s21.49 47.907 47.906 47.907c10.671 0 20.536-3.51 28.507-9.432l6.909 6.908c1.464 1.464 3.384 2.196 5.303 2.196s3.839-.732 5.304-2.197c2.929-2.929 2.929-7.678-.001-10.606l-7.016-7.015c5.595-7.839 8.9-17.418 8.9-27.761 0-26.416-21.49-47.906-47.906-47.906zm0 80.813c-18.145 0-32.906-14.762-32.906-32.907s14.762-32.906 32.906-32.906 32.906 14.762 32.906 32.906c0 6.196-1.723 11.996-4.712 16.949l-8.026-8.026c-2.928-2.928-7.677-2.929-10.606.001-2.929 2.929-2.929 7.678.001 10.606l8.169 8.168c-5.123 3.292-11.206 5.209-17.732 5.209z"/><path d="m267.33 324.691v-80.813c0-4.143-3.357-7.5-7.5-7.5s-7.5 3.357-7.5 7.5v80.813c0 4.143 3.357 7.5 7.5 7.5s7.5-3.357 7.5-7.5z"/><path d="m283.169 328.265c1.312 2.42 3.842 3.927 6.594 3.927h53.911c4.143 0 7.5-3.357 7.5-7.5s-3.357-7.5-7.5-7.5h-40.073l45.102-69.219c1.502-2.306 1.621-5.249.31-7.668-1.312-2.42-3.842-3.927-6.594-3.927h-50.999c-4.143 0-7.5 3.357-7.5 7.5s3.357 7.5 7.5 7.5h37.16l-45.102 69.219c-1.501 2.305-1.621 5.249-.309 7.668z"/><path d="m227.089 236.378c-4.143 0-7.5 3.357-7.5 7.5v55.55c0 4.258-1.151 10.498-11.103 15.511-2.97 1.495-6.311 2.253-9.933 2.253-.011 0-.022 0-.033 0-4.078-.006-7.634-1.014-10.869-3.081-6.546-4.183-9.216-8.419-9.216-14.624v-55.608c0-4.143-3.357-7.5-7.5-7.5s-7.5 3.357-7.5 7.5v55.608c0 11.407 5.279 20.325 16.14 27.265 5.635 3.6 12.001 5.431 18.925 5.44h.054c5.986 0 11.598-1.297 16.679-3.856 15.998-8.057 19.356-20.167 19.356-28.907v-55.55c0-4.144-3.358-7.501-7.5-7.501z"/><path d="m209.59 408.11h-181.89c-7.003 0-12.7-5.701-12.7-12.71v-222.23c0-7.009 5.697-12.71 12.7-12.71h29.48c4.143 0 7.5-3.357 7.5-7.5s-3.357-7.5-7.5-7.5h-29.48c-15.273 0-27.7 12.431-27.7 27.71v222.23c0 15.279 12.427 27.71 27.7 27.71h181.89c4.143 0 7.5-3.357 7.5-7.5s-3.358-7.5-7.5-7.5z"/><path d="m498.236 77.223c-2.108-3.565-6.709-4.745-10.273-2.639-3.565 2.108-4.747 6.708-2.639 10.273 7.639 12.916 11.676 27.735 11.676 42.853 0 46.549-37.871 84.42-84.42 84.42-46.555 0-84.43-37.871-84.43-84.42 0-46.555 37.875-84.43 84.43-84.43 18.858 0 36.688 6.08 51.562 17.582 3.276 2.535 7.987 1.933 10.521-1.345 2.534-3.276 1.932-7.987-1.345-10.521-17.525-13.552-38.528-20.716-60.738-20.716-54.826 0-99.43 44.604-99.43 99.43 0 6.057.546 11.989 1.589 17.75h-222.559c-4.143 0-7.5 3.357-7.5 7.5s3.357 7.5 7.5 7.5h226.52c10.445 29.85 34.747 53.244 65.16 62.436v172.504c0 7.008-5.697 12.71-12.7 12.71h-45.46c-4.143 0-7.5 3.357-7.5 7.5v43.298l-52.021-48.77c-1.391-1.303-3.225-2.028-5.13-2.028h-16.46c-4.143 0-7.5 3.357-7.5 7.5s3.357 7.5 7.5 7.5h13.494l62.486 58.581c1.418 1.329 3.262 2.028 5.132 2.028 1.006 0 2.02-.202 2.979-.618 2.743-1.188 4.519-3.893 4.519-6.882v-53.109h37.96c15.274 0 27.7-12.431 27.7-27.71v-169.221c4.486.622 9.065.951 13.72.951 54.82 0 99.42-44.6 99.42-99.42.001-17.803-4.759-35.261-13.763-50.487z"/><path d="m412.575 179.25c-3.984 0-7.214 3.23-7.214 7.214s3.23 7.215 7.214 7.215 7.214-3.23 7.214-7.215-3.229-7.214-7.214-7.214z"/><path d="m420.075 137.799c7.555-1.541 14.567-5.376 19.937-11.03 7.215-7.601 10.89-17.561 10.346-28.046-1.022-19.69-17.277-35.426-37.006-35.823-.258-.006-.514-.008-.771-.008-18.826 0-34.865 13.875-37.475 32.569-.241 1.738-.364 3.51-.364 5.264 0 4.143 3.357 7.5 7.5 7.5s7.5-3.357 7.5-7.5c0-1.065.074-2.141.221-3.193 1.595-11.427 11.476-19.89 23.088-19.636 11.903.24 21.711 9.73 22.327 21.604.329 6.337-1.889 12.353-6.244 16.94-4.357 4.59-10.238 7.118-16.558 7.118-4.143 0-7.5 3.357-7.5 7.5v31.719c0 4.143 3.357 7.5 7.5 7.5s7.5-3.357 7.5-7.5v-24.978z"/></g></g></svg>