<?xml version="1.0" encoding="UTF-8"?>
<svg xmlns="http://www.w3.org/2000/svg" id="Layer_1" data-name="Layer 1" viewBox="0 0 64 64" width="512" height="512"><path d="M45.81,32.42A1,1,0,0,0,45,32H41V30a3,3,0,0,0-3-3h-.81a6,6,0,1,0-10.38,0H26a3,3,0,0,0-3,3v2H19a1,1,0,0,0-.81.42,1,1,0,0,0-.14.9l4,12A1,1,0,0,0,23,46H41a1,1,0,0,0,1-.68l4-12A1,1,0,0,0,45.81,32.42ZM32,20a4,4,0,1,1-4,4A4,4,0,0,1,32,20ZM25,30a1,1,0,0,1,1-1h2.69a6,6,0,0,0,6.62,0H38a1,1,0,0,1,1,1v2H25ZM40.28,44H23.72L20.39,34H43.61Z"/><path d="M59,16a11,11,0,0,0-21.18-4.16,20.58,20.58,0,0,0-11.64,0A11,11,0,1,0,11.84,26.18a20.58,20.58,0,0,0,0,11.64A11,11,0,1,0,26.18,52.16a20.58,20.58,0,0,0,11.64,0A11,11,0,1,0,52.16,37.82a20.58,20.58,0,0,0,0-11.64A10.93,10.93,0,0,0,59,16ZM7,16a9,9,0,0,1,17.28-3.51A21.08,21.08,0,0,0,12.49,24.28,9.07,9.07,0,0,1,7,16Zm9,41a9,9,0,0,1-3.51-17.28A21.08,21.08,0,0,0,24.28,51.51,9.07,9.07,0,0,1,16,57ZM13,32A19,19,0,1,1,32,51,19,19,0,0,1,13,32ZM57,48a9,9,0,0,1-17.28,3.51A21.08,21.08,0,0,0,51.51,39.72,9.07,9.07,0,0,1,57,48ZM51.51,24.28A21.08,21.08,0,0,0,39.72,12.49,9,9,0,1,1,51.51,24.28Z"/></svg>
