<svg height="512pt" viewBox="-45 0 511 512" width="512pt" xmlns="http://www.w3.org/2000/svg"><g fill-rule="evenodd"><path d="m375.847656 357.011719h-315.253906c-42.917969 0-51.828125 65.683593-52.535156 81.738281v2.949219.027343c.707031 15.828126 12.765625 31.140626 36.566406 31.140626h331.703125c20.90625 0 37.5-17.101563 37.5-37.976563v-115.882813c-.023437 20.902344-17.101563 38.003907-37.980469 38.003907zm0 0" fill="#eceff1"/><path d="m76.539062 407.011719 32.140626-180.691407-32.140626-218.359374c-30.496093 0-65.617187-3.6875-68.480468 39.902343v390.886719c.707031-16.054688 13.019531-31.738281 36.566406-31.738281zm0 0" fill="#fcd968"/><path d="m76.539062 7.960938v399.054687h299.308594c20.878906 0 37.957032-17.074219 37.984375-37.980469l.113281-323.496094c.027344-20.902343-17.078124-37.976562-37.984374-37.976562zm0 0" fill="#f55a8e"/><path d="m376.328125 7.5625v399.453125c20.679687-.257813 37.476563-17.246094 37.503906-37.980469l.113281-323.496094c.027344-20.761718-16.878906-37.777343-37.617187-37.976562zm0 0" fill="#ba4583"/><path d="m44.738281 434.78125h331.222657c19.914062 0 36.367187-15.542969 37.871093-35.085938v-30.660156c-.027343 20.734375-16.824219 37.722656-37.503906 37.980469-.167969 0-.339844 0-.480469 0h-331.222656c-23.546875 0-35.859375 15.683594-36.566406 31.734375v2.949219.03125c.199218 4.28125 1.21875 8.535156 3.089844 12.449219 4.996093-10.890626 16.257812-19.398438 33.589843-19.398438zm0 0" fill="#c4cccf"/><path d="m322.003906 81.417969h-176.476562c-6.296875 0-11.429688 5.160156-11.429688 11.457031v65.429688c0 6.296874 5.132813 11.460937 11.429688 11.460937h176.476562c6.296875 0 11.433594-5.164063 11.433594-11.460937v-65.429688c0-6.296875-5.136719-11.457031-11.433594-11.457031zm0 0" fill="#fcd968"/><path d="m200.164062 504.835938c-6.46875 0-11.773437-4.910157-11.773437-10.894532v-80.660156h-15.828125c-37.726562-1.871094-38.578125-31.679688-23.003906-51.703125l53.839844-69.175781c17.417968-21.1875 45.558593-21.1875 60.734374 0l53.84375 69.175781c15.574219 20.023437 14.75 49.832031-23.007812 51.703125h-15.828125v80.660156c0 5.984375-5.304687 10.894532-11.773437 10.894532zm0 0" fill="#8ebfe8"/><path d="m246.632812 472.871094v31.964844h20.734376c6.46875 0 11.773437-4.910157 11.773437-10.894532v-80.660156h15.828125c9.644531-.480469 16.851562-2.777344 22.015625-6.265625 15.089844-10.15625 12.59375-30.519531.992187-45.4375l-53.84375-69.175781c-10.238281-14.265625-26.324218-18.917969-41.074218-13.980469 1.105468 1.21875 2.15625 2.523437 3.175781 3.914063l53.8125 69.175781c15.601563 20.023437 17.164063 41.664062-20.566406 41.664062-7.234375 0-12.851563 4.195313-12.851563 10.746094v68.949219zm0 0" fill="#519ad6"/><path d="m299.054688 81.417969v88.347656h22.949218c6.300782 0 11.433594-5.164063 11.433594-11.457031v-65.433594c0-6.296875-5.136719-11.457031-11.433594-11.457031zm0 0" fill="#e6a235"/></g><path d="m322.003906 73.855469h-176.476562c-10.46875 0-18.988282 8.53125-18.988282 19.019531v65.433594c0 10.488281 8.519532 19.019531 18.988282 19.019531h69.730468c4.171876 0 7.554688-3.386719 7.554688-7.5625s-3.382812-7.5625-7.554688-7.5625h-69.730468c-2.097656 0-3.875-1.785156-3.875-3.898437v-65.429688c0-2.109375 1.777344-3.894531 3.875-3.894531h176.476562c2.101563 0 3.875 1.785156 3.875 3.894531v65.433594c0 2.109375-1.773437 3.894531-3.875 3.894531h-68.875c-4.175781 0-7.558594 3.386719-7.558594 7.5625s3.382813 7.5625 7.558594 7.5625h68.875c10.472656 0 18.988282-8.53125 18.988282-19.019531v-65.433594c0-10.488281-8.515626-19.019531-18.988282-19.019531zm0 0"/><path d="m408.1875 13.40625c-8.625-8.644531-20.070312-13.40625-32.238281-13.40625l-299.414063.398438c-2.171875 0-4.371094-.019532-6.578125-.039063-15.121093-.132813-30.753906-.265625-43.746093 5.324219-15.675782 6.738281-24.320313 20.765625-25.695313 41.683594-.007813.167968-.015625.332031-.015625.496093v393.863281c0 .113282.003906.226563.007812.339844.828126 18.480469 14.988282 38.367188 44.113282 38.367188h135.816406v13.113281c0 10.175781 8.671875 18.453125 19.328125 18.453125h67.203125c10.660156 0 19.332031-8.277344 19.332031-18.453125v-13.113281h90.027344c24.847656 0 45.058594-20.429688 45.058594-45.539063v-65.855469l.113281-323.488281c.019531-12.109375-4.710938-23.523437-13.3125-32.144531zm-227.75 451.902344h-135.8125c-20.527344 0-28.449219-12.761719-29.011719-23.761719v-2.617187c.613281-12.148438 9.796875-24.355469 29.011719-24.355469h104.132812c5.523438 3.046875 12.980469 5.367187 23.035157 5.863281.121093.007812.246093.011719.371093.011719h8.273438zm98.304688-59.988282c-4.171876 0-7.554688 3.386719-7.554688 7.566407v80.660156c0 1.773437-1.96875 3.328125-4.214844 3.328125h-67.203125c-2.246093 0-4.21875-1.554688-4.21875-3.328125v-80.660156c0-4.179688-3.382812-7.566407-7.554687-7.566407h-15.636719c-8.644531-.453124-19.6875-2.820312-23.648437-11.46875-3.464844-7.5625-.949219-18.5625 6.410156-28.023437l53.777344-69.09375c7.109374-8.605469 16.65625-13.40625 26.21875-13.039063 8.832031.292969 16.8125 4.808594 22.476562 12.71875.058594.078126.121094.160157.179688.238282l53.839843 69.175781c7.355469 9.453125 9.871094 20.453125 6.40625 28.015625-3.964843 8.652344-15.003906 11.023438-23.640625 11.476562zm127.53125 29.574219c0 16.769531-13.433594 30.414063-29.945313 30.414063h-90.027344v-44.863282h8.269531c.125 0 .25 0 .375-.007812 10.050782-.5 17.5-2.816406 23.023438-5.863281h57.878906c11.679688 0 22.351563-4.433594 30.425782-11.710938zm0-65.867187c-.019532 16.773437-13.671876 30.421875-30.425782 30.421875h-43.804687c5.457031-12.734375 2.25-29.09375-8.503907-42.917969l-53.753906-69.0625c-8.339844-11.5625-20.78125-18.449219-34.164062-18.894531-14.355469-.484375-28.332032 6.3125-38.453125 18.625-.042969.050781-.085938.105469-.128907.15625l-53.839843 69.175781c-10.753907 13.828125-13.964844 30.1875-8.511719 42.917969h-50.589844v-157.304688c0-4.175781-3.382812-7.5625-7.558594-7.5625-4.171874 0-7.554687 3.386719-7.554687 7.5625v157.304688h-24.359375c-12.304688 0-21.925781 3.613281-29.011719 9.1875v-360.515625c2.152344-31.199219 21.6875-32.886719 53.367188-32.644532v192.007813c0 4.179687 3.382812 7.566406 7.558593 7.566406 4.171876 0 7.554688-3.386719 7.554688-7.566406v-191.972656l291.867188-.386719c8.113281 0 15.761718 3.1875 21.535156 8.972656 5.742187 5.757813 8.902344 13.367188 8.890625 21.4375zm0 0"/></svg>