<svg id="Layer_1" enable-background="new 0 0 32 32" viewBox="0 0 32 32" xmlns="http://www.w3.org/2000/svg"><g><path d="m17.5 32h-3.1c-1.1 0-2-.9-2-2v-2.2c0-.2-.1-.4-.3-.4-.5-.2-1.1-.4-1.6-.7-.2-.1-.4 0-.5.1l-1.6 1.6c-.8.8-2 .8-2.8 0l-2.2-2.2c-.8-.8-.8-2 0-2.8l1.6-1.6c.1-.1.2-.3.1-.5-.3-.5-.5-1-.7-1.6-.1-.2-.2-.3-.4-.3h-2c-1.1 0-2-.9-2-2v-3.1c0-1.1.9-2 2-2h2.2c.2 0 .4-.1.4-.3.2-.5.4-1.1.7-1.6.1-.2 0-.4-.1-.5l-1.6-1.3c-.8-.8-.8-2 0-2.8l2.2-2.2c.8-.8 2-.8 2.8 0l1.6 1.6c.1.1.3.2.5.1.5-.3 1-.5 1.6-.7.2-.1.3-.2.3-.4v-2.2c0-1.1.9-2 2-2h3.1c1.1 0 2 .9 2 2v2.2c0 .2.1.4.3.4.5.2 1.1.4 1.6.7.2.1.4 0 .5-.1l1.6-1.6c.8-.8 2-.8 2.8 0l2.2 2.2c.8.8.8 2 0 2.8l-1.6 1.6c-.1.1-.2.3-.1.5.3.5.5 1 .7 1.6.1.2.2.3.4.3h1.9c1.1 0 2 .9 2 2v3.1c0 1.1-.9 2-2 2h-2.2c-.2 0-.4.1-.4.3-.2.5-.4 1.1-.7 1.6-.1.2 0 .4.1.5l1.6 1.6c.8.8.8 2 0 2.8l-2.2 2.2c-.8.8-2 .8-2.8 0l-1.6-1.6c-.1-.1-.3-.2-.5-.1-.5.3-1 .5-1.6.7-.2.1-.3.2-.3.4v1.9c.1 1.1-.8 2-1.9 2zm-7-6.8c.3 0 .6.1.8.2.4.2.9.4 1.4.6.8.3 1.3 1 1.3 1.9v2.1c0 .3.2.5.5.5h3.1c.3 0 .5-.2.5-.5v-2.2c0-.8.5-1.6 1.3-1.9.5-.2.9-.4 1.4-.6.7-.4 1.6-.2 2.2.4l1.6 1.6c.2.2.5.2.7 0l2.2-2.2c.2-.2.2-.5 0-.7l-1.6-1.6c-.6-.6-.8-1.5-.4-2.2.2-.4.4-.9.6-1.4.3-.8 1-1.3 1.9-1.3h2c.3 0 .5-.2.5-.5v-3.1c0-.3-.2-.5-.5-.5h-2.2c-.9 0-1.6-.5-1.9-1.3-.2-.5-.4-.9-.6-1.4-.4-.7-.2-1.6.4-2.2l1.6-1.6c.2-.2.2-.5 0-.7l-2.2-2.2c-.2-.2-.5-.2-.7 0l-1.6 1.6c-.6.6-1.5.8-2.2.4-.4-.2-.9-.4-1.4-.6-.7 0-1.2-.8-1.2-1.6v-2.2c0-.3-.2-.5-.5-.5h-3.1c-.2 0-.4.2-.4.5v2.2c0 .8-.5 1.6-1.3 1.8-.5.2-.9.4-1.4.6-.7.4-1.6.2-2.2-.4l-1.6-1.5c-.2-.2-.5-.2-.7 0l-2.1 2.1c-.2.2-.2.5 0 .7l1.6 1.6c.6.6.8 1.5.4 2.2-.2.4-.4.9-.6 1.4-.3.8-1.1 1.3-1.9 1.3h-2.2c-.3 0-.5.2-.5.5v3.1c0 .2.2.4.5.4h2.2c.8 0 1.6.5 1.8 1.3.2.5.4.9.6 1.4.4.7.2 1.6-.4 2.2l-1.6 1.6c-.2.2-.2.5 0 .7l2.2 2.2c.2.2.5.2.7 0l1.6-1.6c.3-.4.9-.6 1.4-.6zm5.5-2.2c-3.9 0-7-3.1-7-7s3.1-7 7-7 7 3.1 7 7-3.1 7-7 7zm0-12.5c-3 0-5.5 2.5-5.5 5.5s2.5 5.5 5.5 5.5 5.5-2.5 5.5-5.5-2.5-5.5-5.5-5.5z" fill="#231f20"/></g></svg>