<svg id="Layer_1" enable-background="new 0 0 512 512" height="512" viewBox="0 0 512 512" width="512" xmlns="http://www.w3.org/2000/svg"><g><g><g><path d="m7.5 183.826h497v144.303h-497z" fill="#eef5f6"/><path d="m464.5 183.826h40v144.303h-40z" fill="#deecf1"/><g fill="#fe76a8"><path d="m39.106 214.977h37.355v82h-37.355z"/><path d="m105.178 214.977h37.355v82h-37.355z"/><path d="m171.25 214.977h37.355v82h-37.355z"/><path d="m237.323 214.977h37.355v82h-37.355z"/><path d="m303.395 214.977h37.355v82h-37.355z"/></g></g></g><g><path d="m116.846 95.707c27.35-23.811 60.709-40.248 96.473-47.536 82.959-16.905 167.596 17.322 215.804 85.762l-13.141-2.262c-4.085-.703-7.96 2.038-8.663 6.119-.703 4.083 2.037 7.961 6.119 8.664l29.507 5.078c4.051.986 8.483-1.594 9.238-6.035l5.353-31.453c.695-4.083-2.052-7.957-6.135-8.651-4.084-.69-7.957 2.052-8.652 6.136l-2.153 12.651c-51.746-72.534-141.898-108.719-230.272-90.707-38.297 7.804-74.026 25.412-103.327 50.919-3.124 2.721-3.452 7.458-.732 10.582 2.721 3.124 7.459 3.453 10.581.733z"/><path d="m396.652 414.931c-90.419 83.519-245.521 64.775-313.774-36.909l15.188 2.614c4.087.704 7.961-2.037 8.663-6.119.703-4.082-2.037-7.961-6.119-8.664l-31.553-5.43c-3.982-.97-8.519 1.798-9.24 6.035l-5.444 31.991c-.695 4.083 2.052 7.957 6.135 8.651 3.72.631 8.018-2.411 8.652-6.136l2.245-13.19c51.606 72.912 143.61 108.769 230.272 90.706 39.028-7.953 75.312-26.049 104.931-52.329 3.099-2.75 3.381-7.49.632-10.588-2.748-3.097-7.49-3.38-10.588-.632z"/><path d="m504.5 175.071h-497c-4.142 0-7.5 3.357-7.5 7.5v146.812c0 4.143 3.358 7.5 7.5 7.5h426.491c4.142 0 7.5-3.357 7.5-7.5s-3.358-7.5-7.5-7.5h-418.991v-131.812h482v131.812h-23.054c-4.142 0-7.5 3.357-7.5 7.5s3.358 7.5 7.5 7.5h30.554c4.142 0 7.5-3.357 7.5-7.5v-146.812c0-4.143-3.358-7.5-7.5-7.5z"/><path d="m39.106 260.35c-4.142 0-7.5 3.357-7.5 7.5v29.127c0 4.143 3.358 7.5 7.5 7.5h37.355c4.142 0 7.5-3.357 7.5-7.5v-82c0-4.143-3.358-7.5-7.5-7.5h-37.355c-4.142 0-7.5 3.357-7.5 7.5v13.111c.307 9.916 14.696 9.909 15 0v-5.611h22.355v67h-22.355v-21.627c0-4.142-3.357-7.5-7.5-7.5z"/><path d="m105.178 207.477c-4.142 0-7.5 3.357-7.5 7.5v82c0 4.143 3.358 7.5 7.5 7.5h37.355c4.142 0 7.5-3.357 7.5-7.5v-82c0-4.143-3.358-7.5-7.5-7.5zm29.855 82h-22.355v-67h22.355z"/><path d="m171.25 207.477c-4.142 0-7.5 3.357-7.5 7.5v82c0 4.143 3.358 7.5 7.5 7.5h37.355c4.142 0 7.5-3.357 7.5-7.5v-82c0-4.143-3.358-7.5-7.5-7.5zm29.855 82h-22.355v-67h22.355z"/><path d="m237.322 207.477c-4.142 0-7.5 3.357-7.5 7.5v82c0 4.143 3.358 7.5 7.5 7.5h37.355c4.142 0 7.5-3.357 7.5-7.5v-82c0-4.143-3.358-7.5-7.5-7.5zm29.856 82h-22.355v-67h22.355z"/><path d="m303.395 207.477c-4.142 0-7.5 3.357-7.5 7.5v82c0 4.143 3.358 7.5 7.5 7.5h37.355c4.142 0 7.5-3.357 7.5-7.5v-82c0-4.143-3.358-7.5-7.5-7.5zm29.855 82h-22.355v-67h22.355z"/><path d="m41 144.874c9.652 0 9.668-15 0-15-9.652 0-9.668 15 0 15z"/><path d="m76.461 144.874c9.652 0 9.668-15 0-15-9.651 0-9.667 15 0 15z"/><path d="m111.923 144.874c9.652 0 9.668-15 0-15-9.652 0-9.668 15 0 15z"/><path d="m473.534 367.08c-9.652 0-9.668 15 0 15 9.652 0 9.668-15 0-15z"/><path d="m438.073 367.08c-9.652 0-9.668 15 0 15 9.652 0 9.668-15 0-15z"/><path d="m402.612 367.08c-9.652 0-9.668 15 0 15 9.651 0 9.667-15 0-15z"/></g></g></svg>